<?xml version="1.0" encoding="UTF-8"?>
<svg id="Capa_2" data-name="Capa 2" xmlns="http://www.w3.org/2000/svg" viewBox="0 0 68.91 69.72">
  <defs>
    <style>
      .cls-1 {
        fill: #004d67;
        stroke-width: 0px;
      }
    </style>
  </defs>
  <g id="Capa_1-2" data-name="Capa 1">
    <g>
      <path class="cls-1" d="M18.22,0C30.2,0,42.18,0,54.16,0c.29.25.6.48.87.75,4.38,4.38,8.76,8.76,13.15,13.13.5.5.73,1.02.73,1.74-.02,15.93,0,31.86-.02,47.79,0,.65-.03,1.33-.2,1.95-.74,2.75-2.97,4.35-6,4.35-14.43,0-28.87,0-43.3,0-3.81,0-6.24-2.43-6.25-6.26,0-2.59-.04-5.17.02-7.76.02-.78-.25-1.13-.92-1.47C5.53,50.78,1.47,45.3.28,37.87c-1.55-9.65,3.42-18.9,12.22-23.18.5-.24.67-.52.67-1.08-.02-2.72-.04-5.45.03-8.17.04-1.64.8-2.99,2.04-4.07C16.1.62,17.15.29,18.22,0ZM15.47,13.37c9.46-2.31,17.65-.27,23.78,7.38,6.12,7.63,6.37,16.06,2.04,24.84.15.12.35.27.53.44,3.34,3.34,6.7,6.64,9.99,10.03,2.55,2.63,1.98,6.87-1.09,8.85-2.32,1.5-5.28,1.13-7.39-.96-3.22-3.19-6.44-6.4-9.62-9.63-.49-.5-.83-.58-1.47-.24-4.05,2.14-8.36,2.9-12.9,2.3-1.27-.17-2.53-.46-3.82-.7-.01.1-.03.21-.03.32,0,2.61,0,5.22,0,7.83,0,.29.03.59.1.87.44,1.73,1.78,2.68,3.76,2.68,14.41,0,28.82-.02,43.22.02,2.27,0,4.05-1.42,4.04-4.05-.05-15.43-.03-30.86-.03-46.29v-.82c-.33,0-.59,0-.86,0-3.06,0-6.13,0-9.19,0-2.49,0-3.87-1.4-3.87-3.88,0-3.09,0-6.17,0-9.26,0-.24,0-.49,0-.77-.22-.01-.37-.03-.53-.03-11,0-22.01,0-33.01,0-2.17,0-3.61,1.46-3.64,3.64-.02,1.77,0,3.54,0,5.31,0,.7,0,1.4,0,2.1ZM22.11,14.77c-10.88-.04-19.73,8.81-19.77,19.78-.04,10.88,8.82,19.65,19.91,19.71,10.64.06,19.53-8.86,19.6-19.68.07-10.88-8.79-19.78-19.74-19.81ZM35.22,52.47c3.21,3.24,6.47,6.52,9.73,9.8.13.13.28.24.42.34,1.49,1.09,3.61.81,4.76-.62,1.18-1.46,1-3.35-.47-4.83-3.1-3.12-6.22-6.23-9.33-9.34-.11-.11-.23-.2-.26-.22-1.65,1.65-3.26,3.26-4.87,4.87ZM54.97,4.1c0,2.84,0,5.6,0,8.36,0,1.07.4,1.47,1.48,1.47,2.61,0,5.21,0,7.82,0,.16,0,.32-.04.46-.06-3.26-3.26-6.48-6.48-9.77-9.77Z"/>
      <path class="cls-1" d="M34.06,9.29c-4.08,0-8.17,0-12.25,0-.27,0-.55.01-.81-.05-.52-.12-.82-.49-.86-1.01-.05-.53.2-.94.69-1.13.27-.1.58-.13.87-.13,8.23,0,16.47,0,24.7,0,.27,0,.55.03.8.1.55.17.81.59.77,1.14-.04.58-.38.96-.98,1.05-.25.04-.5.03-.75.03-4.06,0-8.12,0-12.18,0Z"/>
      <path class="cls-1" d="M52.08,20.92c2.72,0,5.44,0,8.16,0,.27,0,.55,0,.81.05.55.13.85.52.86,1.08.01.53-.25.92-.76,1.08-.27.09-.58.1-.87.1-5.49,0-10.98,0-16.46,0-.25,0-.5-.02-.74-.08-.59-.14-.89-.56-.87-1.14.02-.57.35-.97.96-1.07.27-.04.54-.04.81-.04,2.7,0,5.4,0,8.1,0Z"/>
      <path class="cls-1" d="M53.22,44.14c-2.33,0-4.67,0-7,0-.25,0-.5,0-.75-.03-.56-.1-.89-.47-.94-1.02-.05-.55.21-.98.75-1.16.27-.09.58-.11.87-.11,4.72,0,9.43,0,14.15,0,.22,0,.46,0,.67.05.61.13.94.53.94,1.15,0,.6-.44,1.04-1.08,1.1-.32.03-.63.02-.95.02-2.22,0-4.44,0-6.66,0Z"/>
      <path class="cls-1" d="M53.77,37.18c-2.24,0-4.49,0-6.73,0-.63,0-1.12-.22-1.31-.86-.22-.76.31-1.42,1.17-1.46.75-.03,1.5,0,2.24,0,3.67,0,7.34,0,11.01,0,.18,0,.36,0,.54,0,.74.05,1.24.54,1.22,1.19-.02.63-.5,1.1-1.22,1.12-.82.02-1.63,0-2.45,0-1.5,0-2.99,0-4.49,0Z"/>
      <path class="cls-1" d="M53.83,27.9c2.22,0,4.44-.01,6.66.01.36,0,.79.11,1.06.32.63.5.44,1.54-.31,1.84-.26.11-.57.13-.86.13-4.37,0-8.75,0-13.12,0-.11,0-.23,0-.34,0-.76-.06-1.23-.52-1.22-1.19.01-.68.48-1.11,1.26-1.12,1.04-.02,2.08,0,3.13,0,1.25,0,2.49,0,3.74,0Z"/>
      <path class="cls-1" d="M64.25,59.51c0,.68.01,1.36,0,2.04-.05,1.99-1.41,3.43-3.41,3.52-1.52.06-3.04.03-4.55.01-.8-.01-1.32-.51-1.3-1.18.01-.68.51-1.12,1.34-1.13,1.36-.01,2.72,0,4.08,0,1.12,0,1.53-.41,1.53-1.51,0-1.38-.02-2.77,0-4.15.02-1.06.97-1.68,1.74-1.11.29.22.39.7.57,1.07.02.04,0,.09,0,.13,0,.77,0,1.54,0,2.31h0Z"/>
      <path class="cls-1" d="M55.54,51.12c-1.7,0-3.4,0-5.1,0-.54,0-1.05-.2-1.15-.75-.07-.37.01-.91.25-1.16.25-.27.76-.37,1.16-.39,1.13-.05,2.27-.02,3.4-.02,2.04,0,4.08,0,6.12,0,.27,0,.55.02.81.07.6.13.9.54.88,1.12-.01.58-.33,1.01-.93,1.08-.56.07-1.13.05-1.7.06-1.25,0-2.49,0-3.74,0h0Z"/>
      <path class="cls-1" d="M42.18,16.26c-1.36,0-2.72,0-4.08,0-.25,0-.5,0-.74-.05-.6-.09-.93-.49-.95-1.07-.02-.58.27-1,.86-1.14.26-.06.54-.07.81-.07,2.74,0,5.49,0,8.23,0,.14,0,.27,0,.41,0,.78.06,1.26.51,1.27,1.15,0,.67-.49,1.15-1.31,1.16-1.5.02-2.99,0-4.49,0h0Z"/>
      <path class="cls-1" d="M4.68,34.48c.11-10.17,8.39-17.64,17.97-17.36,9.64.28,17.09,8.3,16.84,18.14-.24,9.28-8.44,16.96-17.76,16.69-9.79-.28-17.1-8.23-17.05-17.48ZM22.09,49.62c8.39-.06,15.11-6.77,15.07-15.05-.04-8.53-6.75-15.18-15.26-15.11-8.36.07-14.93,6.9-14.88,15.45.06,8.02,6.96,14.77,15.07,14.71Z"/>
      <path class="cls-1" d="M21.87,33.69c2.7,0,5.4,0,8.1,0,.27,0,.55,0,.81.06.59.11.91.5.92,1.09,0,.59-.3.99-.89,1.11-.24.05-.49.06-.74.06-5.47,0-10.93,0-16.4,0-.02,0-.05,0-.07,0-1.05-.01-1.6-.41-1.61-1.15,0-.75.55-1.17,1.59-1.18,2.77,0,5.53,0,8.3,0Z"/>
      <path class="cls-1" d="M21.81,29.04c-1.25,0-2.49,0-3.74,0-.91,0-1.45-.46-1.43-1.18.02-.69.55-1.14,1.42-1.14,2.54-.01,5.08-.01,7.61,0,.87,0,1.39.47,1.39,1.16,0,.71-.5,1.15-1.38,1.15-1.29.01-2.58,0-3.88,0Z"/>
      <path class="cls-1" d="M21.94,40.68c1.25,0,2.49,0,3.74,0,.88,0,1.39.44,1.39,1.15,0,.7-.52,1.16-1.39,1.17-2.56.01-5.12.01-7.68,0-.64,0-1.16-.22-1.31-.93-.11-.56.09-1,.59-1.24.25-.12.57-.14.86-.14,1.27-.01,2.54,0,3.81,0Z"/>
    </g>
  </g>
</svg>