<?xml version="1.0" encoding="UTF-8"?>
<svg id="Capa_2" data-name="Capa 2" xmlns="http://www.w3.org/2000/svg" viewBox="0 0 101.31 101.29">
  <defs>
    <style>
      .cls-1 {
        fill: #004d67;
        stroke-width: 0px;
      }
    </style>
  </defs>
  <g id="Capa_1-2" data-name="Capa 1">
    <g>
      <path class="cls-1" d="M12.89,29.4c-3.08,0-6.03,0-8.99,0-.71,0-1.43.02-2.14,0C.71,29.36.02,28.72,0,27.8c-.02-.93.67-1.64,1.7-1.65,4.32-.02,8.65-.02,12.97,0,1.06,0,1.7.72,1.65,1.79-.05.98-.18,1.96-.29,3.1,1.29,0,2.54-.08,3.77.02,2.65.2,5.08-.46,7.53-1.4,4.21-1.62,8.48-3.11,12.77-4.53,3.27-1.08,6.59-.61,9.89.03.36.07.76.14,1.1.06,5.01-1.28,9.85-.64,14.6,1.21,3.29,1.28,6.61,2.5,9.89,3.81,3.13,1.25,6.37.63,9.72.83-.1-.96-.19-1.82-.28-2.68-.16-1.53.47-2.24,2-2.24,4.09,0,8.17,0,12.26,0,1.29,0,2.03.62,2.03,1.63,0,1.02-.75,1.63-2.04,1.63-3.57,0-7.14,0-10.84,0,.98,9.27,1.94,18.45,2.92,27.78.37,0,.74,0,1.1,0,2.31,0,4.63,0,6.94,0,1.19,0,1.93.65,1.92,1.64,0,.98-.74,1.61-1.95,1.62-3.06,0-6.13.01-9.19,0-1.24,0-1.8-.54-1.93-1.76-.1-.88-.19-1.76-.29-2.64,0-.06-.05-.12-.18-.4-1.59.2-3.25.41-5.14.65,2.01,1.97,2.88,4.11,1.96,6.66-.91,2.52-2.83,3.72-5.56,3.91-.13,1.94-.94,3.57-2.51,4.77-1.56,1.19-3.31,1.52-5.32,1.02-.38,1.81-1.4,3.16-2.9,4.15-1.49.99-3.12,1.29-4.92.79-.09.16-.18.29-.24.44-1.39,3.47-5.29,4.71-8.44,2.68-1.17-.76-2.32-1.55-3.45-2.37-.46-.34-.79-.34-1.25,0-.95.72-1.95,1.37-2.93,2.05-3.55,2.45-7.31,1.38-9.02-2.57-.03-.06-.08-.11-.12-.16-3.74.83-6.86-1.45-7.88-4.9-4.96.16-6.7-1.14-7.82-5.85-5.09-.07-8.19-6.25-3.59-10.6-1.81-.24-3.45-.47-5.22-.71-.13,1.14-.25,2.1-.36,3.07-.14,1.23-.69,1.76-1.92,1.77-3.1.01-6.2.01-9.29,0-1.13,0-1.84-.64-1.86-1.6-.02-.99.71-1.66,1.9-1.66,2.65-.01,5.3,0,8.06,0,.98-9.24,1.94-18.43,2.93-27.78ZM46.09,68.42c.33,0,.6,0,.86,0,3.81-.14,6.41,3.2,5.66,6.32-.06.24.21.67.44.85,1.04.77,2.11,1.49,3.18,2.21,1.35.91,2.61.81,3.44-.26.8-1.03.56-2.01-.75-3.13-2.02-1.72-4.04-3.44-6.05-5.18-.82-.71-.9-1.74-.27-2.44.6-.66,1.57-.68,2.39-.04.13.1.26.22.39.33,2.59,2.21,5.17,4.43,7.77,6.62,1.49,1.26,2.93,1.09,4.24-.47,1.01-1.2.75-2.56-.74-3.77-1.91-1.54-3.82-3.07-5.72-4.61-1.1-.89-1.32-1.77-.68-2.6.65-.84,1.64-.81,2.76.09,1.17.94,2.33,1.88,3.49,2.82,1.62,1.3,3.21,2.64,4.86,3.89,1.25.95,2.66.69,3.69-.57.95-1.16.84-2.47-.32-3.52-.58-.52-1.21-.99-1.83-1.47-2.18-1.69-4.36-3.37-6.53-5.07-.88-.69-.99-1.66-.37-2.41.58-.71,1.51-.77,2.37-.16.36.26.7.54,1.05.81,2.69,2.08,5.37,4.18,8.08,6.23,1.68,1.27,3.86.44,4.13-1.55.16-1.2-.52-1.97-1.4-2.65-6.06-4.67-12.09-9.39-18.18-14.03-2.95-2.25-6.02-4.33-9-6.54-.86-.64-1.63-.6-2.41-.02-.95.71-1.87,1.47-2.77,2.24-1.4,1.19-2.69,2.53-4.2,3.55-.97.66-2.22,1.17-3.37,1.23-2.79.15-5.16-1.01-7.07-3.06-.79-.85-.78-1.52-.09-2.46,1.37-1.86,2.7-3.76,4.08-5.61,1.59-2.14,2.87-4.55,5.27-6.02-.83.1-1.64.2-2.39.47-4.03,1.43-8.07,2.85-12.07,4.38-2.64,1.01-5.3,1.67-8.15,1.47-1.38-.1-2.78-.02-4.27-.02-.63,6.06-1.26,12.06-1.89,18.13,2.76.03,5.23.58,7.63,1.52.25.1.64-.06.93-.18,3.12-1.36,6.58.12,7.76,3.32.11.31.23.62.36.99,1.74-.47,3.35-.3,4.84.65,1.49.95,2.47,2.29,2.88,3.99,4.27-.88,7.63,2.34,7.92,5.7ZM87.53,52.16c-.61-5.83-1.25-11.82-1.88-17.86-1.74,0-3.34-.07-4.94.02-2.33.12-4.51-.32-6.67-1.18-3.15-1.26-6.34-2.46-9.52-3.64-2.88-1.07-5.83-1.97-8.95-1.68-3.99.37-7.83,1.38-11.41,3.22-.33.17-.69.35-.91.63-2.27,2.96-4.52,5.94-6.78,8.91,2.04,1.55,4.26,1.98,6.24.1,1.06-1.01,2.09-2.06,3.25-2.95,1.42-1.09,2.9-2.11,4.44-3.02,1.09-.64,2.28-.53,3.38.21.79.53,1.65.96,2.41,1.53,7.38,5.52,14.77,11.04,22.1,16.62.96.73,1.69.89,2.88.5,2.01-.65,4.14-.94,6.35-1.41ZM42.79,69.02c-.08-1.67-.92-2.41-1.93-2.95-.97-.51-1.91-.27-2.73.44-1.24,1.06-2.48,2.12-3.72,3.17-1.22,1.03-1.45,2.38-.59,3.49,1.16,1.51,2.75,1.84,4.07.77,1.37-1.11,2.73-2.24,4.01-3.45.48-.45.71-1.16.89-1.47ZM35.11,63.97c-.15-1.3-.84-2.06-1.81-2.59-.92-.51-1.85-.36-2.67.28-1.33,1.05-2.65,2.13-3.96,3.2-1.2.98-1.42,2.36-.57,3.49,1.04,1.39,2.52,1.7,3.81.71,1.45-1.12,2.87-2.28,4.23-3.51.44-.4.65-1.05.96-1.59ZM22.2,63.54c.15-.03.48.01.67-.13,1.31-1,2.69-1.94,3.85-3.1.79-.8.53-2.13-.26-2.97-.78-.82-2.05-1.1-2.97-.46-1.12.76-2.18,1.61-3.18,2.53-.77.7-.9,1.67-.45,2.63.43.93,1.17,1.47,2.34,1.51ZM47.04,71.66c-.19.05-.53.05-.76.21-1.54,1.04-3.11,2.05-4.54,3.23-.4.33-.55,1.25-.44,1.82.25,1.35,2.07,1.94,3.4,1.12,1.32-.82,2.59-1.73,3.85-2.65.77-.57,1.14-1.37.78-2.32-.36-.97-1.17-1.35-2.28-1.4Z"/>
      <path class="cls-1" d="M52.29,4.92c0,1.02.02,2.04,0,3.06-.02,1.11-.7,1.82-1.66,1.8-.92-.02-1.58-.71-1.6-1.76-.02-2.08-.02-4.15,0-6.23.01-1.11.69-1.82,1.66-1.8.96.02,1.58.72,1.6,1.86.02,1.02,0,2.04,0,3.06Z"/>
      <path class="cls-1" d="M49.02,96.39c0-1.06-.02-2.11,0-3.16.03-1.04.7-1.73,1.63-1.72.93,0,1.61.69,1.62,1.73.03,2.11.03,4.22,0,6.33-.01,1.04-.71,1.73-1.63,1.72-.92,0-1.59-.69-1.62-1.74-.03-1.05,0-2.11,0-3.16Z"/>
      <path class="cls-1" d="M29.11,15.5c-.23-.17-.81-.41-1.08-.84-1.15-1.84-2.22-3.73-3.28-5.63-.5-.89-.2-1.83.62-2.27.79-.43,1.67-.2,2.19.67,1.12,1.86,2.22,3.74,3.25,5.64.61,1.13-.15,2.41-1.7,2.44Z"/>
      <path class="cls-1" d="M26.45,94.73c-1.45.04-2.34-1.2-1.78-2.26,1.08-2.03,2.24-4.03,3.45-5.99.46-.75,1.26-.89,2.07-.46.76.4,1.09,1.31.66,2.09-1.09,1.99-2.22,3.96-3.41,5.9-.23.38-.78.57-.99.72Z"/>
      <path class="cls-1" d="M74.81,94.72c-.24-.19-.8-.45-1.07-.89-1.12-1.81-2.18-3.67-3.22-5.53-.5-.9-.22-1.83.59-2.28.78-.44,1.68-.23,2.19.63,1.12,1.86,2.21,3.73,3.25,5.63.63,1.16-.19,2.49-1.75,2.44Z"/>
      <path class="cls-1" d="M76.82,8.34c-.1.25-.21.61-.39.92-.97,1.71-1.95,3.42-2.94,5.11-.62,1.05-1.5,1.38-2.36.9-.9-.49-1.09-1.44-.46-2.55,1.01-1.77,2.02-3.53,3.06-5.28.42-.71,1.05-1.07,1.89-.82.77.23,1.14.8,1.21,1.71Z"/>
    </g>
  </g>
</svg>