<?xml version="1.0" encoding="UTF-8"?>
<svg id="Capa_2" data-name="Capa 2" xmlns="http://www.w3.org/2000/svg" xmlns:xlink="http://www.w3.org/1999/xlink" viewBox="0 0 35.29 31.99">
  <defs>
    <style>
      .cls-1 {
        fill: none;
      }

      .cls-1, .cls-2 {
        stroke-width: 0px;
      }

      .cls-3 {
        clip-path: url(#clippath);
      }

      .cls-2 {
        fill: #fff;
      }
    </style>
    <clipPath id="clippath">
      <rect class="cls-1" width="35.29" height="31.99"/>
    </clipPath>
  </defs>
  <g id="Capa_1-2" data-name="Capa 1">
    <g class="cls-3">
      <g>
        <path class="cls-2" d="M0,4.14c.03-.07.06-.14.08-.22.29-.96,1.11-1.6,2.12-1.63.71-.02,1.42,0,2.14,0,.47,0,.77.3.77.7s-.3.67-.79.67h-1.93c-.66,0-1,.34-1,1v2.84h29.09v-2.96c-.01-.48-.3-.83-.77-.87-.4-.04-.8,0-1.21-.02h-.37v.85c-.02.81-.61,1.41-1.42,1.43-.41,0-.83,0-1.24,0-.69-.03-1.27-.59-1.33-1.27-.04-.44.16-.75.54-.83.37-.08.69.13.82.56.01.04.02.09.03.15h1.21V1.42h-1.19s-.03.05-.03.09c-.14.49-.47.73-.87.62-.4-.11-.59-.5-.49-.97.15-.65.71-1.12,1.38-1.14.4,0,.8,0,1.21,0,.76.03,1.36.63,1.39,1.4v.88h1.48c.99.02,1.82.61,2.12,1.53.08.25.12.52.12.78v13.99c0,.52-.25.81-.69.81s-.69-.3-.69-.81v-9.6H1.38v16.91c0,.79.3,1.08,1.08,1.08h18.64c.18,0,.37,0,.54.05.31.08.51.4.47.71-.04.32-.28.57-.61.6-.14.01-.28,0-.41,0-6.12,0-12.24-.02-18.37.02-1.47,0-2.39-.6-2.73-1.89V4.14H0Z"/>
        <path class="cls-2" d="M35.29,25.78c0,3.4-2.81,6.21-6.21,6.21s-6.25-2.8-6.25-6.21,2.79-6.26,6.27-6.26,6.2,2.82,6.2,6.26h0ZM33.91,25.76c0-2.66-2.18-4.86-4.83-4.86s-4.86,2.16-4.88,4.82c-.02,2.7,2.16,4.89,4.87,4.9,2.66,0,4.83-2.17,4.84-4.85h0Z"/>
        <path class="cls-2" d="M21.33,3.67v.78c-.02.92-.6,1.5-1.52,1.51h-1.14c-.63-.03-1.16-.48-1.3-1.09-.12-.52.07-.91.5-1.01.42-.1.72.15.86.7h1.2V1.39h-1.05c-.07,0-.16.1-.19.18-.15.42-.46.64-.82.55-.39-.09-.6-.45-.52-.91C17.48.51,18.03.02,18.74,0,19.13-.01,19.52,0,19.91,0c.77.02,1.36.59,1.41,1.37.02.28,0,.57,0,.89.15,0,.28.02.4.02h3c.61,0,.96.54.69,1.02-.15.27-.39.36-.7.36h-3.38Z"/>
        <path class="cls-2" d="M7.73,2.29h3.45c.44.02.74.32.73.71-.01.38-.31.66-.74.66h-3.44v.75c0,.94-.59,1.52-1.53,1.53h-1.1c-.62-.02-1.14-.44-1.31-1.04-.15-.53.02-.94.46-1.06.43-.11.75.13.88.7h1.2V1.42h-1.18s-.02,0-.02.02c-.16.55-.47.79-.88.68-.44-.12-.62-.56-.45-1.1C3.97.45,4.5.04,5.1,0,5.51-.01,5.93,0,6.34,0c.77.03,1.36.63,1.38,1.39v.88h0Z"/>
        <path class="cls-2" d="M11.94,4.56h1.19V1.41h-1.19c-.02.08-.05.16-.08.25-.12.33-.42.53-.75.48-.35-.05-.58-.33-.58-.7,0-.74.6-1.39,1.36-1.42C12.31,0,12.74,0,13.16.02c.76.03,1.34.64,1.37,1.42.01.27,0,.55,0,.85h3.44c.45,0,.73.3.72.71-.01.39-.29.66-.73.66h-3.42v.76c-.01.91-.6,1.51-1.51,1.52-.39,0-.78.01-1.17,0-.73-.04-1.31-.66-1.32-1.38,0-.39.23-.67.59-.73.34-.05.63.15.75.52.02.06.04.13.07.21h0Z"/>
        <path class="cls-2" d="M5.73,23.66h-1.27c-.43,0-.72-.28-.73-.67,0-.39.29-.7.73-.7.85-.01,1.7-.01,2.55,0,.45,0,.73.3.72.71,0,.39-.29.65-.72.66h-1.28Z"/>
        <path class="cls-2" d="M26.09,18.64h-1.24c-.44-.01-.72-.28-.73-.66,0-.4.28-.7.72-.71.85-.01,1.7-.01,2.55,0,.44,0,.74.31.73.7,0,.39-.29.65-.73.67-.44.01-.87,0-1.31,0h.01Z"/>
        <path class="cls-2" d="M12.51,23.66h-1.27c-.43-.01-.71-.29-.71-.68s.28-.68.7-.69c.86-.01,1.72-.01,2.58,0,.42,0,.71.31.72.69,0,.39-.3.68-.75.69h-1.27Z"/>
        <path class="cls-2" d="M12.57,17.26h1.2c.45.01.75.28.76.67,0,.4-.3.69-.77.7h-2.48c-.47,0-.75-.27-.75-.67,0-.42.28-.69.76-.7h1.28Z"/>
        <path class="cls-2" d="M19.31,18.64c-.42,0-.85.01-1.27,0-.43-.01-.72-.3-.72-.68s.29-.68.71-.69c.86-.01,1.72-.01,2.58,0,.44,0,.71.29.71.68,0,.41-.28.67-.73.69h-1.28Z"/>
        <path class="cls-2" d="M19.32,23.66h-1.27c-.42,0-.72-.29-.73-.67,0-.38.28-.69.7-.7.87-.01,1.74-.02,2.61,0,.42,0,.69.31.68.71,0,.39-.29.65-.73.66h-1.27.01Z"/>
        <path class="cls-2" d="M19.33,13.62h-1.27c-.45,0-.75-.3-.74-.69,0-.38.29-.67.72-.68.86,0,1.72-.02,2.58,0,.44,0,.7.3.7.69s-.28.66-.71.68c-.42.01-.85,0-1.27,0h-.01Z"/>
        <path class="cls-2" d="M5.72,18.64c-.42,0-.85.01-1.27,0-.43-.01-.72-.29-.72-.67s.28-.69.7-.69c.87-.01,1.74-.01,2.62,0,.41,0,.68.3.68.68s-.27.66-.7.69h-1.31Z"/>
        <path class="cls-2" d="M26.13,13.62h-1.27c-.44,0-.72-.27-.73-.66-.01-.4.27-.7.72-.71.85-.02,1.7,0,2.55,0,.45,0,.74.3.73.7,0,.4-.3.65-.76.67h-1.24Z"/>
        <path class="cls-2" d="M5.71,13.62h-1.24c-.45-.01-.75-.29-.75-.68s.29-.68.75-.69c.84,0,1.67,0,2.51,0,.46,0,.74.28.74.68s-.29.68-.77.69h-1.24Z"/>
        <path class="cls-2" d="M12.52,13.62h-1.24c-.46-.01-.74-.27-.75-.68,0-.4.27-.68.73-.69.84,0,1.67,0,2.51,0,.46,0,.75.29.76.68,0,.4-.3.68-.78.69h-1.24.01Z"/>
        <path class="cls-2" d="M29.03,26.48c-.15-.09-.36-.15-.5-.29-.9-.88-1.8-1.78-2.68-2.68-.32-.32-.33-.73-.05-1.01s.7-.28,1.04.06c.72.71,1.44,1.42,2.14,2.15.22.23.41.27.69.18.34-.11.68-.2,1.03-.28.42-.09.77.11.86.48.09.38-.11.72-.52.84-.65.19-1.3.36-2.01.55Z"/>
      </g>
    </g>
  </g>
</svg>