<?xml version="1.0" encoding="UTF-8"?>
<svg id="Capa_2" data-name="Capa 2" xmlns="http://www.w3.org/2000/svg" xmlns:xlink="http://www.w3.org/1999/xlink" viewBox="0 0 31.13 31.14">
  <defs>
    <style>
      .cls-1 {
        fill: none;
      }

      .cls-1, .cls-2 {
        stroke-width: 0px;
      }

      .cls-3 {
        clip-path: url(#clippath);
      }

      .cls-2 {
        fill: #fff;
      }
    </style>
    <clipPath id="clippath">
      <rect class="cls-1" width="31.13" height="31.14"/>
    </clipPath>
  </defs>
  <g id="Capa_1-2" data-name="Capa 1">
    <g class="cls-3">
      <g>
        <path class="cls-2" d="M30.34,31.14h-9.48c-.96-.36-.76-1.21-.79-1.99H7.9c-.56,0-.7-.14-.7-.7v-5.18C3.19,23.01.05,19.64,0,15.7c-.02-1.81.51-3.44,1.63-4.85,1.41-1.79,3.27-2.75,5.56-2.96V2.78c0-.67.11-.78.78-.78h12.1v-.77c0-.82.39-1.21,1.21-1.21h8.57c.62,0,1.05.21,1.28.8v3.34c-.19.5-.52.8-1.08.8h-8.88c-.68,0-1.09-.42-1.09-1.11v-.85h-11.88v4.91c1.8.14,3.35.81,4.7,2.02.16-.32.33-.61.46-.91.15-.35.38-.47.76-.47,1.86.01,3.73,0,5.59,0h.38v-.73c0-.87.37-1.24,1.23-1.24,2.83,0,5.65.01,8.48,0,.63,0,1.08.17,1.34.75v3.41c-.23.58-.66.8-1.28.8-2.87-.02-5.73,0-8.6,0-.77,0-1.17-.4-1.18-1.18v-.81h-4.87c-.33,0-.74-.11-.98.05-.25.16-.33.58-.51.87-.11.18-.08.29.04.45.69.88,1.16,1.87,1.41,2.96.09.4.14.81.21,1.22h4.7v-.71c0-.88.37-1.26,1.25-1.26,2.83,0,5.65.01,8.48,0,.63,0,1.08.18,1.33.78v3.41c-.21.46-.52.77-1.05.77h-8.94c-.64,0-1.05-.43-1.07-1.08v-.89h-4.72c-.14,1.82-.84,3.4-2.1,4.79.2.18.4.33.56.51.18.21.38.28.66.27,1.74-.01,3.48,0,5.23,0h.37v-.77c0-.82.39-1.22,1.2-1.22h8.57c.62,0,1.05.21,1.28.8v3.41c-.23.47-.56.75-1.13.75-2.94-.01-5.87,0-8.81,0-.7,0-1.11-.41-1.11-1.12v-.86h-6c-.27,0-.49-.07-.67-.28-.26-.29-.54-.57-.82-.85-1.31,1.06-2.77,1.63-4.4,1.76v4.92h11.89v-.74c0-.85.37-1.22,1.22-1.22h8.57c.63,0,1.05.21,1.27.81v3.34c-.14.38-.41.65-.79.79v-.06ZM7.69,8.85c-3.7,0-6.71,3.01-6.71,6.71s3,6.71,6.71,6.71,6.72-3.01,6.72-6.7-3.01-6.71-6.71-6.72h0ZM21.06,17.05h9.08v-2.95h-9.08v2.95ZM21.06,3.95h9.07V1.01h-9.07v2.94ZM30.14,20.64h-9.07v2.95h9.07v-2.95ZM21.06,30.14h9.08v-2.94h-9.08v2.94ZM21.06,10.51h9.07v-2.96h-9.07v2.96Z"/>
        <path class="cls-2" d="M7.67,9.58c3.28-.02,5.98,2.67,6,5.96.02,3.3-2.67,6-5.97,6.01-3.29,0-5.98-2.66-5.99-5.95,0-3.31,2.66-5.99,5.97-6.01h0ZM7.69,20.57c2.76,0,5.01-2.25,5.01-5.01s-2.25-5-5.01-5.01c-2.77,0-5.02,2.25-5.02,5.03s2.25,4.99,5.02,4.99Z"/>
        <path class="cls-2" d="M25.6,16.06h-2.46c-.39,0-.61-.18-.62-.48,0-.31.22-.5.63-.5h4.92c.38,0,.61.18.62.48,0,.31-.23.5-.63.5h-2.46Z"/>
        <path class="cls-2" d="M25.63,2.97h-2.49c-.22,0-.43-.04-.55-.25-.16-.29,0-.64.32-.71.09-.02.18-.02.27-.02h4.95c.34.01.55.19.56.48,0,.29-.22.49-.57.49h-2.49Z"/>
        <path class="cls-2" d="M25.63,21.64h2.52c.43,0,.69.4.46.71-.09.13-.29.25-.45.25-1.7.02-3.4.01-5.1,0-.33,0-.54-.21-.54-.49s.21-.47.55-.47h2.56Z"/>
        <path class="cls-2" d="M25.59,29.16h-2.52c-.42,0-.69-.35-.5-.67.09-.14.32-.28.48-.28,1.69-.02,3.38-.02,5.07-.01.34,0,.55.2.56.48,0,.29-.21.49-.57.49h-2.52Z"/>
        <path class="cls-2" d="M25.6,9.51h-2.46c-.39,0-.61-.17-.62-.47,0-.31.23-.5.63-.5h4.92c.48,0,.75.35.56.71-.12.22-.31.26-.54.26h-2.49Z"/>
        <path class="cls-2" d="M9.01,17.05c-.06-.38-.22-.63-.52-.74-.33-.13-.67-.2-1.01-.31-.31-.09-.63-.16-.92-.31-1.2-.6-1.29-2.17-.17-2.93.14-.1.3-.19.46-.23.26-.06.35-.18.35-.46,0-.3.21-.48.48-.47.27,0,.47.19.46.49,0,.25.07.35.31.42.58.18.99.57,1.25,1.12.13.28.05.56-.18.68-.25.14-.55.05-.68-.25-.34-.75-1.21-.84-1.76-.58-.31.15-.5.38-.5.73s.23.56.53.66c.33.11.69.16,1.03.27.31.1.62.2.9.35.62.35.92.9.88,1.61-.04.68-.44,1.11-1.03,1.39-.08.04-.16.09-.25.1-.32.05-.52.15-.5.55.01.24-.21.38-.47.38s-.46-.17-.46-.43c0-.32-.14-.41-.41-.5-.68-.23-1.16-.69-1.34-1.41-.07-.29.06-.52.32-.6.24-.08.53.03.58.3.19.96,1.59,1.12,2.28.64.16-.11.25-.31.37-.47Z"/>
      </g>
    </g>
  </g>
</svg>