<?xml version="1.0" encoding="UTF-8"?>
<svg id="Capa_2" data-name="Capa 2" xmlns="http://www.w3.org/2000/svg" viewBox="0 0 66.86 75.9">
  <defs>
    <style>
      .cls-1 {
        fill: #004d67;
        stroke-width: 0px;
      }
    </style>
  </defs>
  <g id="Capa_1-2" data-name="Capa 1">
    <g>
      <path class="cls-1" d="M53.6,0c.57.43.69,1.01.68,1.69-.03,1.33,0,2.67-.02,4,0,.49.17.64.64.63,1.36-.02,2.72-.01,4.08,0,1.27,0,1.59.32,1.59,1.56,0,1.55,0,3.1,0,4.73,1.61,0,3.16,0,4.71,0,1.25,0,1.59.33,1.59,1.57,0,20.03,0,40.07,0,60.1,0,1.3-.32,1.62-1.62,1.62-5.93,0-11.86,0-17.79,0-.2,0-.4.02-.59-.02-.61-.12-.98-.49-.96-1.12.01-.59.37-.95.95-1.06.24-.04.49-.02.74-.02,5.39,0,10.77,0,16.16,0h.84V14.88h-4.03v.87c0,9.86,0,19.71,0,29.57,0,.25.02.5-.02.74-.1.62-.48.98-1.11.97-.63,0-1-.38-1.08-1-.03-.24-.01-.49-.01-.74,0-11.93,0-23.86,0-35.79v-.92h-4.08c0,.35,0,.69,0,1.02,0,17.24,0,34.49,0,51.73,0,.32,0,.64-.03.96-.07.59-.44.92-1.02.99-.24.03-.49.01-.74.01-12.35,0-24.71,0-37.06,0h-.91v4.02h43.84v-.79c0-5.04,0-10.08,0-15.12,0-.29.02-.6.12-.87.2-.49.65-.77,1.13-.6.36.13.69.49.92.82.13.19.05.53.05.8,0,5.43,0,10.87,0,16.3,0,1.45-.29,1.74-1.73,1.74-12.3,0-24.61,0-36.91,0-.34,0-.69,0-1.09,0v4.07h.89c6.55,0,13.09,0,19.64,0,.25,0,.5-.02.74.02.58.1.94.46.95,1.06.02.63-.35,1.01-.96,1.13-.22.04-.44.02-.67.02-7.09,0-14.18,0-21.27,0-1.3,0-1.62-.31-1.62-1.61,0-1.53,0-3.05,0-4.68-1.38,0-2.68,0-3.98,0-2.26,0-2.32-.06-2.32-2.33,0-1.28,0-2.57,0-3.98-.67,0-1.33.04-1.98,0-1.4-.1-2.84-.04-4.18-.4-3.45-.92-5.83-4.03-6.03-7.6-.06-1.01-.05-2.02-.04-3.04.01-.87.42-1.25,1.3-1.25,1.5-.01,3.01,0,4.62,0v-1.06c0-16.06,0-32.11,0-48.17,0-.7.08-1.32.68-1.76h47ZM8.18,50.99h.87c5.31,0,10.62,0,15.93,0,.22,0,.45-.02.67.01.62.08.98.44,1.02,1.07.03.6-.4,1.06-1.04,1.13-.22.02-.44,0-.67,0-7.26,0-14.53,0-21.79,0h-.94c0,.54-.01,1.01,0,1.47.11,3.77,2.77,6.38,6.54,6.38,10.2,0,20.41,0,30.61,0,.2,0,.41-.03.41-.03-.66-1.19-1.51-2.32-1.94-3.59-.44-1.3-.46-2.75-.67-4.23-.14,0-.41,0-.67,0-1.83,0-3.66,0-5.48,0-.86,0-1.36-.43-1.35-1.13,0-.67.49-1.09,1.31-1.09,2.42,0,4.84,0,7.26,0,.92,0,1.31.39,1.34,1.29.02.89-.02,1.78.03,2.67.19,3.57,2.84,6.09,6.42,6.11,1.78.01,3.56,0,5.34,0,.21,0,.42-.03.62-.05V2.28H8.18v48.71Z"/>
      <path class="cls-1" d="M19.35,7.26c2.27,0,4.54,0,6.82,0,1.01,0,1.41.37,1.41,1.37,0,4.57,0,9.13,0,13.7,0,1-.4,1.37-1.41,1.37-4.54,0-9.09,0-13.63,0-1.01,0-1.41-.37-1.41-1.37,0-4.57,0-9.13,0-13.7,0-1,.4-1.37,1.41-1.37,2.27,0,4.54,0,6.82,0ZM13.39,21.44h11.92v-11.9h-11.92v11.9Z"/>
      <path class="cls-1" d="M30.02,45.06c-5.75,0-11.51,0-17.26,0-.25,0-.5.03-.74-.03-.57-.14-.89-.52-.88-1.12.02-.57.34-.92.88-1.04.24-.05.49-.03.74-.03,11.56,0,23.11,0,34.67,0,.22,0,.45-.02.67.02.58.11.93.46.95,1.06.01.63-.34,1.01-.95,1.13-.24.04-.49.02-.74.02-5.78,0-11.56,0-17.33,0Z"/>
      <path class="cls-1" d="M38.18,38.39c-3.06,0-6.12,0-9.18,0-.22,0-.45.02-.66-.03-.57-.14-.89-.52-.88-1.12.01-.57.34-.91.88-1.04.21-.05.44-.03.66-.03,6.17,0,12.34,0,18.51,0,.2,0,.4-.02.59.02.58.11.93.46.95,1.06.02.63-.34,1.01-.95,1.13-.21.04-.44.02-.66.02-3.09,0-6.17,0-9.26,0Z"/>
      <path class="cls-1" d="M30.18,29.64c2.64,0,5.28,0,7.92,0,.82,0,1.3.41,1.32,1.08.02.68-.46,1.13-1.26,1.14-1.85.01-3.7,0-5.55,0-3.46,0-6.91,0-10.36-.01-.35,0-.83-.04-1.02-.27-.25-.29-.46-.85-.35-1.15.13-.34.64-.72,1.01-.76.98-.11,1.97-.04,2.96-.04,1.78,0,3.55,0,5.33,0Z"/>
      <path class="cls-1" d="M39.78,11.41c-2.64,0-5.28.03-7.92-.03-.4,0-.9-.29-1.14-.61-.17-.23-.12-.82.07-1.07.21-.28.69-.49,1.06-.49,5.31-.03,10.61-.02,15.92-.02.81,0,1.29.43,1.29,1.1,0,.67-.48,1.11-1.29,1.11-2.67,0-5.33,0-8,0Z"/>
      <path class="cls-1" d="M39.8,14.38c2.52,0,5.03,0,7.55,0,.2,0,.4,0,.59,0,.68.05,1.13.51,1.11,1.14-.02.6-.45,1.05-1.1,1.07-.99.03-1.97.01-2.96.01-4.22,0-8.44,0-12.66,0-.17,0-.35,0-.52,0-.8-.03-1.27-.46-1.25-1.14.02-.65.48-1.07,1.25-1.07,1.65-.01,3.31,0,4.96,0,1.01,0,2.02,0,3.04,0Z"/>
      <path class="cls-1" d="M39.88,19.57c2.62,0,5.23,0,7.85,0,.67,0,1.17.22,1.3.93.14.74-.37,1.28-1.23,1.29-1.7.01-3.41,0-5.11,0-3.55,0-7.11,0-10.66-.01-.35,0-.83-.04-1.02-.26-.25-.29-.42-.79-.37-1.16.08-.58.59-.79,1.17-.79,2.3,0,4.59,0,6.89,0,.39,0,.79,0,1.18,0Z"/>
      <path class="cls-1" d="M17.72,38.39c-1.75,0-3.5,0-5.26,0-.91,0-1.43-.44-1.41-1.14.02-.68.52-1.08,1.4-1.08,3.53,0,7.06,0,10.59,0,.92,0,1.42.42,1.4,1.14-.02.69-.51,1.08-1.39,1.08-1.78,0-3.55,0-5.33,0Z"/>
    </g>
  </g>
</svg>