<?xml version="1.0" encoding="UTF-8"?>
<svg id="Capa_2" data-name="Capa 2" xmlns="http://www.w3.org/2000/svg" xmlns:xlink="http://www.w3.org/1999/xlink" viewBox="0 0 23.23 31.74">
  <defs>
    <style>
      .cls-1 {
        fill: none;
      }

      .cls-1, .cls-2 {
        stroke-width: 0px;
      }

      .cls-3 {
        clip-path: url(#clippath);
      }

      .cls-2 {
        fill: #fff;
      }
    </style>
    <clipPath id="clippath">
      <rect class="cls-1" width="23.23" height="31.74"/>
    </clipPath>
  </defs>
  <g id="Capa_1-2" data-name="Capa 1">
    <g class="cls-3">
      <path class="cls-2" d="M12.23,0c.25.05.5.1.75.17,2.72.67,4.53,2.94,4.58,5.74.01.66,0,1.32,0,2.03h2.91c.61,0,1,.37,1.06.98.33,3.56.65,7.12.98,10.67.23,2.51.45,5.02.69,7.53.16,1.71-.4,3.09-1.87,4.03-.65.42-1.38.59-2.15.59H4.02c-1.9,0-3.43-1.2-3.91-3.01-.21-.81-.07-1.62,0-2.43.17-1.94.35-3.89.53-5.83.2-2.17.4-4.34.59-6.51.15-1.67.31-3.33.45-5,.06-.67.43-1.02,1.12-1.02h2.86c0-.33-.02-.65,0-.97.05-.82.02-1.67.2-2.46C6.41,2.15,8.37.42,10.76.06c.08,0,.16-.04.23-.06h1.24ZM15.58,9.94h-7.94v2.87c0,.63-.42,1.08-1,1.07-.57,0-.98-.45-.98-1.08v-2.86h-2.06c-.02.15-.03.28-.04.41-.11,1.23-.22,2.47-.33,3.7-.2,2.18-.4,4.36-.6,6.54-.18,1.94-.36,3.89-.53,5.83-.03.38-.08.76-.09,1.14-.05,1.32.79,2.19,2.12,2.19,4.98,0,9.96-.01,14.94.01,1.27,0,2.32-.9,2.18-2.3-.09-.9-.17-1.81-.25-2.71-.19-2.16-.39-4.32-.58-6.48-.22-2.45-.44-4.9-.67-7.34-.03-.33-.07-.67-.1-1h-2.06v2.89c0,.39-.15.71-.49.91-.66.4-1.48-.07-1.49-.87-.01-.97,0-1.94,0-2.93h-.03ZM15.58,7.92c0-.73.02-1.42,0-2.11-.05-1.85-1.44-3.47-3.23-3.76-1.95-.32-3.77.72-4.45,2.51-.29.76-.25,1.54-.25,2.32v1.04h7.93Z"/>
    </g>
  </g>
</svg>