<?xml version="1.0" encoding="UTF-8"?>
<svg id="Capa_2" data-name="Capa 2" xmlns="http://www.w3.org/2000/svg" viewBox="0 0 68.43 68.43">
  <defs>
    <style>
      .cls-1 {
        fill: #004d67;
        stroke-width: 0px;
      }
    </style>
  </defs>
  <g id="Capa_1-2" data-name="Capa 1">
    <g>
      <path class="cls-1" d="M55.32,0c.45.39.91.77,1.33,1.19,3.64,3.63,7.27,7.28,10.93,10.9.58.57.85,1.18.85,2-.02,16.59-.01,33.18-.01,49.77,0,2.94-1.61,4.56-4.53,4.56-15.99,0-31.98,0-47.97,0-1.34,0-2-.43-2.01-1.32-.01-.9.65-1.35,1.98-1.35,15.9,0,31.8,0,47.7,0,1.85,0,2.16-.31,2.16-2.19,0-.49,0-.97,0-1.55h-.74c-3.47,0-6.95,0-10.42,0-.18,0-.36,0-.53,0-.84-.05-1.39-.57-1.4-1.32,0-.75.54-1.29,1.37-1.35.22-.02.45,0,.67,0,3.65,0,7.3,0,11.01,0V14.83c-.22,0-.45,0-.69,0-2.36,0-4.72,0-7.08,0-2.66,0-4.33-1.68-4.34-4.35,0-2.34,0-4.68,0-7.01v-.8h-.76c-12.34,0-24.67,0-37.01,0-1.5,0-1.91.41-1.91,1.9,0,3.65,0,7.3,0,10.96,0,.31,0,.63-.1.92-.19.6-.65.91-1.26.9-.58-.01-1.03-.32-1.2-.89-.09-.29-.1-.61-.1-.92,0-3.5,0-6.99,0-10.49,0-3.02.6-3.92,3.34-5.05,13.58,0,27.17,0,40.75,0ZM63.55,12.16c-2.42-2.42-4.87-4.87-7.29-7.29,0,1.91-.02,3.93.01,5.94.01.81.56,1.32,1.38,1.33,2,.03,4,0,5.9,0Z"/>
      <path class="cls-1" d="M0,23.38c1.34-2.83,2.69-5.66,4.01-8.5.16-.35.24-.76.26-1.14.03-1.07,0-2.14.01-3.21,0-.96.56-1.59,1.35-1.57.77.01,1.29.62,1.32,1.55,0,.04,0,.09,0,.13-.33,2.62.38,4.98,1.66,7.25.85,1.51,1.53,3.11,2.23,4.7.22.49.36,1.06.37,1.59.04,2.38.02,4.76.02,7.15,0,.22,0,.45-.03.67-.12.66-.66,1.13-1.29,1.14-.63,0-1.19-.46-1.3-1.12-.05-.33-.04-.67-.04-1,0-1.98,0-3.96,0-5.98H2.71v33.44h5.84v-.69c0-4.56,0-9.13,0-13.69,0-.16,0-.31,0-.47.01-1.02.53-1.66,1.34-1.65.81,0,1.33.64,1.33,1.67,0,5.65,0,11.31,0,16.96,0,.26,0,.53,0,.86.64,0,1.24.03,1.83,0,.59-.04.84-.43.84-1.21,0-3.41,0-6.81,0-10.22,0-.29-.01-.58.03-.87.11-.69.69-1.18,1.33-1.17.63.02,1.16.49,1.28,1.16.03.2.03.4.03.6,0,3.5,0,6.99,0,10.49,0,2.44-1.47,3.91-3.9,3.91-.44,0-.89,0-1.44,0,0,.5,0,.98,0,1.46-.03,1.69-1.12,2.8-2.81,2.82-1.69.02-3.39-.05-5.08.02-1.66.07-2.79-.56-3.34-2.15,0-14.3,0-28.59,0-42.89ZM8.52,61.24H2.72v4.46h5.8v-4.46ZM3.47,22.27h4.28c-.71-1.49-1.39-2.92-2.14-4.49-.75,1.56-1.43,2.99-2.14,4.49Z"/>
      <path class="cls-1" d="M38.46,29.26v-3.22c-.25-.01-.49-.03-.72-.03-1.02,0-2.05.02-3.07,0-1.01-.03-1.53-.52-1.54-1.46-.01-3.5-.01-6.99,0-10.49,0-.87.49-1.39,1.37-1.39,3.52-.02,7.04-.02,10.55,0,.92,0,1.42.53,1.42,1.5.02,3.43.02,6.86,0,10.29,0,1.04-.53,1.53-1.59,1.56-.98.02-1.96,0-2.94,0-.24,0-.48,0-.76,0v3.25c.24,0,.48,0,.72,0,4.39,0,8.77,0,13.16,0,1.4,0,1.85.44,1.85,1.83,0,1.94,0,3.87,0,5.83.43.19.87.35,1.27.56,2.19,1.16,3.26,3.38,2.88,5.94-.31,2.13-2.17,4.03-4.4,4.5-2.86.6-5.69-1.19-6.52-4.1-.77-2.71.82-5.73,3.52-6.66.42-.14.59-.31.58-.78-.04-1.46-.01-2.93-.01-4.42h-13.04v4.77c.95.66,1.93,1.16,2.68,1.9,1.79,1.77,2.01,4.45.7,6.71-1.15,1.98-3.79,3.1-5.99,2.54-2.56-.65-4.26-2.7-4.38-5.31-.11-2.32,1.46-4.64,3.71-5.41.42-.14.6-.3.58-.78-.04-1.46-.01-2.93-.01-4.42h-13.05v4.97c3.33,1.53,4.73,3.83,4.08,6.71-.57,2.53-2.85,4.36-5.45,4.36-2.61,0-4.96-1.88-5.49-4.41-.51-2.46.58-5.52,4.14-6.67,0-1.94,0-3.9,0-5.86,0-1.36.45-1.81,1.8-1.81,4.39,0,8.77,0,13.16,0,.24,0,.48,0,.78,0ZM43.77,15.37h-7.95v7.92h7.95v-7.92ZM24.09,39.5c-1.62-.02-2.95,1.28-2.97,2.9-.02,1.6,1.29,2.93,2.91,2.95,1.62.02,2.94-1.28,2.96-2.9.01-1.62-1.28-2.93-2.9-2.95ZM55.57,45.35c1.61,0,2.94-1.32,2.94-2.92,0-1.6-1.33-2.92-2.94-2.92-1.62,0-2.93,1.3-2.93,2.92,0,1.62,1.31,2.92,2.93,2.92ZM39.8,39.5c-1.62.01-2.93,1.33-2.92,2.94.01,1.61,1.34,2.91,2.96,2.9,1.62-.01,2.93-1.33,2.92-2.94-.01-1.61-1.34-2.91-2.96-2.9Z"/>
      <path class="cls-1" d="M11.21,37.67c0,.69-.63,1.33-1.32,1.33-.69,0-1.33-.63-1.33-1.32,0-.69.63-1.33,1.32-1.33.69,0,1.33.63,1.33,1.32Z"/>
      <path class="cls-1" d="M49.44,59.34c.69,0,1.33.63,1.33,1.32,0,.69-.63,1.33-1.32,1.33-.69,0-1.33-.63-1.33-1.32,0-.69.63-1.33,1.32-1.33Z"/>
    </g>
  </g>
</svg>