<?xml version="1.0" encoding="UTF-8"?>
<svg id="Capa_2" data-name="Capa 2" xmlns="http://www.w3.org/2000/svg" viewBox="0 0 177.76 23.99">
  <defs>
    <style>
      .cls-1 {
        fill: #5d5e5e;
      }

      .cls-1, .cls-2 {
        stroke-width: 0px;
      }

      .cls-2 {
        fill: #0089bb;
      }
    </style>
  </defs>
  <g id="Capa_1-2" data-name="Capa 1">
    <g id="No_sologan" data-name="No sologan">
      <g>
        <path class="cls-2" d="M3.82,9.2l7.31,6.35,8.84-9.01c-2-2.78-5.26-4.58-8.94-4.58C4.93,1.95,0,6.89,0,12.97s4.93,11.02,11.02,11.02,11.02-4.94,11.02-11.02c0-1.96-.51-3.79-1.41-5.39l-9.5,12.56L3.82,9.2ZM11.12,6.5c1.4,0,2.54,1.15,2.54,2.58s-1.14,2.56-2.54,2.56-2.53-1.15-2.53-2.56c0-1.43,1.13-2.58,2.53-2.58Z"/>
        <path class="cls-2" d="M19.96,6.54c.24.33.47.68.67,1.05L26.37,0l-6.41,6.54Z"/>
      </g>
      <path class="cls-1" d="M176.03,4.05c-.97,0-1.74.75-1.74,1.69s.77,1.7,1.74,1.7,1.73-.75,1.73-1.7-.75-1.69-1.73-1.69ZM176.04,7.08c-.76,0-1.32-.6-1.32-1.35s.55-1.35,1.31-1.35,1.3.6,1.3,1.36-.55,1.34-1.29,1.34Z"/>
      <path class="cls-1" d="M176.42,5.79v-.02c.21-.06.36-.21.36-.39,0-.17-.07-.3-.17-.37-.12-.07-.27-.12-.59-.12-.28,0-.49.02-.65.05v1.69h.39v-.68h.18c.22,0,.32.08.35.27.05.2.08.35.13.41h.42c-.04-.06-.07-.16-.12-.42-.05-.23-.14-.35-.31-.41ZM175.96,5.66h-.19v-.49s.11-.02.21-.02c.25,0,.36.1.36.26,0,.18-.17.25-.39.25Z"/>
      <polygon class="cls-2" points="29.7 21.65 42.2 21.65 42.2 18.73 32.63 18.73 32.63 14.38 40.11 14.38 40.11 11.44 32.63 11.44 32.63 7.11 42.2 7.11 42.2 4.17 29.7 4.17 29.7 21.65"/>
      <polygon class="cls-2" points="49.11 4.14 46.16 4.14 46.16 8.79 43.67 8.79 43.67 11.74 46.16 11.74 46.16 21.69 49.11 21.69 49.11 11.74 51.61 11.74 51.61 8.79 49.11 8.79 49.11 4.14"/>
      <path class="cls-2" d="M59.35,7.92c-1.29,0-2.4.4-3.32,1.19v-4.94h-2.92v17.48h2.92v-7.91c0-.81.28-1.48.85-2.05.57-.57,1.24-.85,2.05-.85s1.48.28,2.05.85c.57.57.85,1.24.85,2.05v7.91h2.94v-7.91c0-1.52-.5-2.87-1.51-4.01-1.04-1.2-2.36-1.81-3.91-1.81Z"/>
      <path class="cls-2" d="M68.23,3.77c-.53,0-.98.18-1.33.54-.36.36-.54.81-.54,1.33s.18.98.54,1.34c.36.36.8.54,1.33.54s.98-.18,1.34-.54c.37-.36.56-.81.56-1.34s-.19-.98-.56-1.34c-.37-.36-.82-.54-1.34-.54Z"/>
      <rect class="cls-2" x="66.78" y="8.33" width="2.92" height="13.33"/>
      <path class="cls-2" d="M75.54,12.07c.83-.83,1.79-1.23,2.95-1.23,1.27,0,2.33.49,3.22,1.51l.24.28,2.43-1.56-.28-.37c-.65-.87-1.49-1.56-2.48-2.05-.99-.48-2.04-.73-3.13-.73-1.95,0-3.63.7-5.01,2.08-1.38,1.37-2.07,3.06-2.07,5s.7,3.61,2.07,4.98c1.39,1.39,3.08,2.09,5.01,2.09,1.09,0,2.15-.25,3.13-.75.99-.49,1.82-1.19,2.48-2.06l.28-.37-2.43-1.56-.24.28c-.89,1.02-1.94,1.52-3.22,1.52-1.18,0-2.14-.39-2.95-1.2-.81-.84-1.21-1.8-1.21-2.93,0-.59.1-1.13.3-1.59.2-.47.51-.92.91-1.34Z"/>
      <path class="cls-2" d="M94.88,14.27c-.05-.02-.16-.06-1.15-.27-.64-.14-1.58-.33-2.82-.59-1.77-.34-1.77-1.02-1.77-1.24,0-.28.08-.69.79-1.01.47-.21,1.04-.32,1.7-.32s1.22.11,1.68.32c.71.32.79.73.79,1.01v.43h2.95v-.43c0-1.34-.62-2.42-1.86-3.23-1.03-.67-2.23-1.02-3.56-1.02s-2.56.34-3.56,1.02c-1.23.79-1.86,1.88-1.86,3.23,0,1.76.8,2.95,2.38,3.57.05.02.17.06,1.15.26.64.13,1.58.33,2.82.58,1.74.34,1.74,1,1.74,1.22,0,.33,0,1.33-2.68,1.33-.78,0-1.38-.09-1.82-.28-.8-.31-.89-.75-.89-1.05v-.43h-2.92v.43c0,1.37.65,2.48,1.95,3.29.54.32,1.11.56,1.72.73.6.17,1.26.25,1.97.25s1.36-.09,1.96-.25c.6-.17,1.17-.41,1.71-.74,1.28-.81,1.93-1.91,1.93-3.29,0-1.74-.8-2.93-2.36-3.53Z"/>
      <path class="cls-1" d="M115.53,17.94l.07-.1v-6.4h-8.15v2.95h5.22v2.51c-1.24,1.51-2.81,2.24-4.8,2.24-1.72,0-3.15-.6-4.38-1.82-1.24-1.23-1.84-2.67-1.84-4.4s.6-3.17,1.85-4.4c1.23-1.23,2.66-1.82,4.38-1.82.97,0,1.91.22,2.79.66.88.43,1.61,1.05,2.19,1.83l.25.33,2.41-1.67-.26-.35c-.86-1.17-1.95-2.1-3.24-2.74-1.29-.64-2.68-.97-4.14-.97-2.51,0-4.69.91-6.48,2.69-1.77,1.8-2.67,3.97-2.67,6.45s.9,4.66,2.67,6.48c1.8,1.79,3.98,2.69,6.48,2.69,1.55,0,3.02-.37,4.36-1.1,1.34-.73,2.45-1.75,3.29-3.04Z"/>
      <rect class="cls-1" x="117.62" y="4.17" width="2.92" height="17.48"/>
      <path class="cls-1" d="M129.33,22.08c1.9,0,3.58-.7,5.01-2.09,1.38-1.38,2.07-3.05,2.07-4.98s-.7-3.63-2.07-5.01c-1.39-1.37-3.08-2.07-5.01-2.07s-3.63.7-5.01,2.08c-1.38,1.37-2.07,3.06-2.07,5s.7,3.61,2.07,4.98c1.39,1.39,3.08,2.09,5.01,2.09ZM129.33,10.84c1.14,0,2.09.4,2.9,1.23.83.83,1.23,1.78,1.23,2.93s-.4,2.1-1.23,2.93c-.79.81-1.74,1.2-2.9,1.2s-2.14-.39-2.95-1.2c-.81-.84-1.21-1.8-1.21-2.93,0-.59.1-1.13.3-1.59.2-.47.51-.92.91-1.34.83-.83,1.79-1.23,2.95-1.23Z"/>
      <path class="cls-1" d="M141.04,20.17c1.24,1.27,2.76,1.91,4.56,1.91,1.91,0,3.52-.73,4.78-2.16,1.26-1.37,1.89-3.03,1.89-4.92s-.64-3.54-1.91-4.94c-1.25-1.42-2.85-2.14-4.76-2.14-1.81,0-3.34.64-4.56,1.9v-5.65h-2.92v17.48h2.92v-1.48h0ZM142.25,17.93c-.82-.84-1.21-1.8-1.21-2.93,0-.59.1-1.13.3-1.59.2-.47.5-.92.9-1.34.83-.83,1.79-1.23,2.95-1.23s2.09.4,2.9,1.23c.83.83,1.23,1.78,1.23,2.93s-.4,2.1-1.23,2.93c-.8.81-1.74,1.2-2.9,1.2-1.18,0-2.15-.39-2.95-1.2Z"/>
      <path class="cls-1" d="M164.68,20.18v1.47h2.95v-13.33h-2.95v1.49c-1.22-1.26-2.74-1.89-4.56-1.89s-3.5.72-4.76,2.14c-1.26,1.39-1.89,3.05-1.89,4.94s.63,3.56,1.86,4.92c1.28,1.43,2.89,2.16,4.79,2.16,1.81,0,3.33-.64,4.56-1.9ZM157.6,17.93c-.81-.84-1.21-1.8-1.21-2.93,0-.59.1-1.13.3-1.59.2-.47.51-.92.91-1.34.83-.83,1.79-1.23,2.95-1.23s2.09.4,2.9,1.23c.83.83,1.23,1.78,1.23,2.93s-.4,2.1-1.23,2.93c-.79.81-1.74,1.2-2.9,1.2-1.17,0-2.14-.39-2.95-1.2Z"/>
      <rect class="cls-1" x="169.86" y="4.17" width="2.92" height="17.48"/>
    </g>
  </g>
</svg>