<?xml version="1.0" encoding="UTF-8"?>
<svg id="Capa_2" data-name="Capa 2" xmlns="http://www.w3.org/2000/svg" xmlns:xlink="http://www.w3.org/1999/xlink" viewBox="0 0 37.1 37.16">
  <defs>
    <style>
      .cls-1 {
        fill: none;
      }

      .cls-1, .cls-2 {
        stroke-width: 0px;
      }

      .cls-3 {
        clip-path: url(#clippath);
      }

      .cls-2 {
        fill: #fff;
      }
    </style>
    <clipPath id="clippath">
      <rect class="cls-1" width="37.1" height="37.16"/>
    </clipPath>
  </defs>
  <g id="Capa_1-2" data-name="Capa 1">
    <g class="cls-3">
      <g>
        <path class="cls-2" d="M8.66,37.16c-.22-.19-.44-.37-.65-.57-2.54-2.55-5.07-5.1-7.6-7.66-.54-.55-.55-.87-.01-1.4,1.05-1.05,2.1-2.1,3.14-3.16.51-.52,1.11-.79,1.84-.76.11,0,.28-.08.33-.18,2.41-4.22,7.67-5.26,11.44-3.81.19.07.4.1.6.1,2.47,0,4.95.02,7.42,0,1.01,0,1.88.27,2.67,1.19.07-.14.11-.29.19-.38,1.37-1.42,2.75-2.85,4.14-4.26,1.37-1.39,3.7-1.05,4.62.66.51.95.34,2.42-.39,3.29-1.33,1.61-2.68,3.2-4.02,4.81-.69.82-1.39,1.64-2.07,2.47-1.31,1.61-3.02,2.37-5.06,2.38-3.13.02-6.25.03-9.38,0-1.08-.01-1.74.59-2.4,1.28-.05.05-.05.18-.03.26.16.85-.06,1.57-.68,2.17-1.1,1.07-2.18,2.15-3.28,3.23-.13.12-.28.22-.42.34h-.43.03ZM12.52,30.02s.07-.02.09-.03c.08-.07.17-.14.24-.22.89-.97,1.99-1.35,3.3-1.34,3,.04,6.01.02,9.02.01,1.66,0,3.05-.58,4.11-1.91.63-.79,1.3-1.56,1.95-2.34,1.37-1.64,2.74-3.27,4.11-4.92.54-.65.49-1.51-.1-2.05-.58-.53-1.45-.5-2.02.08-1.55,1.59-3.1,3.18-4.64,4.78-.07.08-.14.2-.14.31-.05,2-1.2,3.14-3.21,3.14h-5.29c-.14,0-.29,0-.43-.02-.38-.07-.63-.37-.61-.73.01-.37.28-.64.66-.68.13-.01.27-.01.4-.01h5.32c.16,0,.31,0,.47-.03.69-.1,1.19-.65,1.24-1.35.04-.64-.4-1.28-1.03-1.45-.23-.06-.48-.07-.72-.07h-7.68c-.24,0-.49-.03-.7-.12-1.61-.66-3.26-.75-4.94-.4-2.12.44-3.76,1.57-4.88,3.43-.13.22-.11.34.07.52.51.48,1,.98,1.49,1.48,1.31,1.31,2.63,2.63,3.93,3.94v-.02ZM9.04,35.41c.92-.96,1.89-1.97,2.85-2.99.3-.32.25-.73-.12-1.09-1.99-1.99-3.98-3.98-5.97-5.97-.42-.42-.79-.42-1.22,0-.64.64-1.28,1.29-1.92,1.92-.31.3-.63.59-.98.92,2.45,2.4,4.83,4.73,7.34,7.19l.02.02Z"/>
        <path class="cls-2" d="M21.62,15.95c-4.42,0-7.98-3.58-7.97-8,0-4.39,3.59-7.95,7.98-7.95s7.98,3.59,7.97,8c-.01,4.4-3.58,7.95-7.98,7.95ZM21.62,14.5c3.6,0,6.52-2.91,6.53-6.51,0-3.61-2.92-6.55-6.52-6.55s-6.52,2.92-6.53,6.51c0,3.62,2.91,6.54,6.52,6.54h0Z"/>
        <path class="cls-2" d="M17.28,24.71c0,.39-.33.71-.72.71s-.74-.35-.73-.74c.01-.4.35-.72.76-.7.39.02.69.34.68.73h.01Z"/>
        <path class="cls-2" d="M20.76,4.45v-.78c.01-.44.31-.75.71-.76.4,0,.76.31.72.74-.05.56.05.97.64,1.16.16.05.29.21.42.33.3.3.31.71.05,1.01-.25.28-.65.32-.98.09-.15-.1-.28-.23-.44-.31-.3-.17-.61-.16-.87.08-.23.2-.31.46-.22.75.11.34.36.49.71.51,1.12.08,1.89.73,2.11,1.76.21.96-.26,1.87-1.21,2.4-.09.05-.17.18-.19.29-.03.21,0,.43-.01.65-.03.42-.32.7-.73.7s-.75-.29-.7-.71c.06-.6-.11-.98-.69-1.22-.26-.11-.47-.38-.66-.61-.26-.31-.21-.72.08-.98.29-.26.68-.26.98,0,.16.14.31.31.49.43.3.2.63.25.94.02.25-.19.35-.46.26-.77-.12-.37-.4-.51-.77-.54-1.61-.11-2.57-1.73-1.86-3.14.23-.46.48-.69,1.22-1.11Z"/>
      </g>
    </g>
  </g>
</svg>