<?xml version="1.0" encoding="UTF-8"?>
<svg id="Capa_2" data-name="Capa 2" xmlns="http://www.w3.org/2000/svg" xmlns:xlink="http://www.w3.org/1999/xlink" viewBox="0 0 36.33 36.3">
  <defs>
    <style>
      .cls-1 {
        fill: none;
      }

      .cls-1, .cls-2 {
        stroke-width: 0px;
      }

      .cls-3 {
        clip-path: url(#clippath);
      }

      .cls-2 {
        fill: #fff;
      }
    </style>
    <clipPath id="clippath">
      <rect class="cls-1" width="36.33" height="36.3"/>
    </clipPath>
  </defs>
  <g id="Capa_1-2" data-name="Capa 1">
    <g class="cls-3">
      <g>
        <path class="cls-2" d="M14.28,36.3c-.7-.27-.98-.77-.94-1.52.05-.99-.04-1.99.09-2.97.3-2.16,1.51-3.69,3.46-4.64.07-.04.14-.07.22-.11-2.01-1.81-1.5-4.28-.25-5.47,1.4-1.34,3.59-1.36,5.01-.05,1.3,1.19,1.81,3.72-.2,5.53,1.13.48,2.05,1.22,2.74,2.23.71,1.05,1.04,2.21,1.03,3.47,0,.67-.03,1.35,0,2.02.04.74-.24,1.25-.95,1.51h-10.21ZM24.22,35.08c0-.89.02-1.76,0-2.62-.07-2.43-2.03-4.46-4.44-4.61-2.54-.17-4.79,1.53-5.13,3.99-.14,1.04-.06,2.12-.08,3.18,0,.02.03.04.05.06h9.6ZM21.8,24.19c0-1.33-1.1-2.42-2.42-2.41-1.33,0-2.41,1.1-2.41,2.42s1.09,2.43,2.44,2.42c1.34,0,2.39-1.09,2.39-2.43Z"/>
        <path class="cls-2" d="M36.33,21.48c-.06.29-.11.58-.18.86-.5,2.06-2.01,3.36-4.18,3.6-1.32.15-2.62.09-3.85-.47-1.6-.72-2.42-2.04-2.61-3.73-.26-2.24.22-4.31,1.74-6.04.5-.56,1.15-.99,1.75-1.5-.72-.81-.56-1.87-.51-2.9.03-.58.55-1.01,1.14-1.02.84-.02,1.68-.02,2.51,0,.65.02,1.13.51,1.15,1.16.02.46,0,.92,0,1.38,0,.55-.24,1.02-.59,1.48.98.46,1.74,1.15,2.33,2.03.69,1.03,1.09,2.16,1.23,3.39,0,.09.04.18.06.27v1.49h0ZM26.65,20.74c.01.22.02.49.05.76.15,1.66,1.08,2.77,2.7,3.14,1.07.25,2.16.24,3.22-.06,1.12-.32,1.94-1.01,2.25-2.15.59-2.17.22-4.19-1.22-5.92-1.61-1.92-4.07-1.83-5.64.12-.95,1.18-1.32,2.56-1.36,4.1h0ZM32.08,11.52h-2.4c0,.43-.02.83,0,1.23.03.65.54,1.14,1.16,1.15.63.02,1.18-.42,1.23-1.03.03-.44,0-.89,0-1.36h0Z"/>
        <path class="cls-2" d="M20.62,1.21h2.81c1.6,0,2.61,1.01,2.61,2.61v3.33c0,.14.11.28.17.42,0,0,.02.02.03.02.56.53.6,2.44.02,2.93-.24.2-.6.31-.92.36-.4.06-.83,0-1.24.02-.12,0-.27.08-.34.18-1.07,1.37-2.85,1.36-3.94,0-.07-.09-.23-.17-.34-.17-.87-.01-1.75-.02-2.62,0-.13,0-.29.09-.37.19-1.06,1.34-2.86,1.34-3.92,0-.08-.1-.24-.18-.37-.19-.4-.02-.8,0-1.2-.01-.82-.02-1.29-.49-1.3-1.31v-1.03c0-.41.15-.75.45-1.03.09-.08.14-.26.14-.39V1.44C10.29.48,10.75.02,11.69.02h7.51c.81,0,1.24.36,1.39,1.21l.03-.02ZM11.55,1.22v6.01h7.82V1.22h-7.82ZM24.82,5.45h-1.55c-1.02,0-1.47-.45-1.47-1.46v-1.54h-1.18v4.78h4.2v-1.78ZM23.01,9.67c0-.68-.54-1.21-1.22-1.2-.67,0-1.21.57-1.19,1.23.02.65.55,1.18,1.21,1.19.66,0,1.21-.54,1.2-1.22ZM13.35,9.67c0,.68.52,1.21,1.2,1.22.66,0,1.22-.55,1.22-1.21s-.53-1.19-1.19-1.2c-.67-.02-1.22.52-1.22,1.19h-.01ZM19.65,8.5h-2.95c.11.4.21.77.32,1.18h2.3c.12-.42.22-.79.33-1.18ZM23.04,2.44v1.78h1.75c.21-1.1-.31-1.98-1.75-1.78ZM10.95,8.49v1.17h1.13c.11-.41.21-.79.31-1.17h-1.45.01ZM23.96,8.49c.11.4.21.78.31,1.16h1.13v-1.16h-1.45.01Z"/>
        <path class="cls-2" d="M6.69,25.41H1.45c-.96,0-1.36-.45-1.43-1.4-.09-1.21.13-2.31.8-3.33.36-.54.45-1.13.44-1.78-.03-1.61,0-3.21,0-4.82,0-.89.49-1.37,1.38-1.37h8.11c.92,0,1.4.48,1.4,1.4v5.32c0,.27.11.54.19.81.06.18.16.34.25.51.53,1.06.78,2.18.76,3.37-.01.81-.49,1.3-1.31,1.3h-5.35.01ZM2.47,13.93v5.4h8.42v-5.4H2.47ZM12.12,23.01H1.26v1.16h10.86v-1.16ZM11.74,21.76c-.19-.38-.35-.73-.54-1.06-.04-.07-.17-.12-.26-.12H2.44c-.09,0-.23.04-.27.1-.19.35-.36.7-.54,1.08h10.11Z"/>
        <path class="cls-2" d="M6.07,28.16c1.32,1.59,2.83,2.83,4.58,3.79.35.19.72.36,1.07.54.38.19.51.51.36.84-.15.32-.5.43-.87.26-2.35-1.08-4.36-2.61-6.02-4.6-.07-.08-.14-.16-.24-.27-.04.18-.06.31-.1.44-.09.32-.39.51-.7.44-.32-.07-.53-.35-.48-.68.1-.6.22-1.21.35-1.81.07-.34.33-.52.68-.47.61.1,1.21.21,1.81.34.33.07.51.35.48.65-.03.32-.28.53-.64.53h-.28Z"/>
        <path class="cls-2" d="M7.26,6.86c-1.05,1.01-1.89,2.08-2.6,3.26-.19.32-.36.66-.55.99-.21.37-.53.49-.85.32-.32-.17-.41-.5-.22-.88.8-1.59,1.84-3.02,3.1-4.28.04-.04.1-.06.23-.14-.18-.05-.25-.07-.31-.08-.31-.07-.48-.27-.48-.57s.15-.57.46-.58c.66-.04,1.32-.04,1.98,0,.32.02.47.29.47.61,0,.54,0,1.09,0,1.63,0,.39-.23.63-.57.64-.34.01-.58-.2-.63-.58-.01-.08-.01-.16-.03-.32v-.02Z"/>
        <path class="cls-2" d="M28.85,31.31c.17.04.31.06.43.11.27.12.4.34.36.62-.04.3-.23.53-.54.51-.68-.05-1.36-.12-2.03-.24-.31-.05-.45-.33-.41-.65.06-.57.13-1.15.21-1.72.06-.42.33-.63.69-.58.35.05.54.34.49.77,0,.07,0,.13,0,.27.31-.27.6-.48.84-.73.66-.71,1.3-1.43,1.94-2.15.27-.3.59-.37.87-.16.29.22.32.57.08.91-.03.04-.05.08-.09.11-.85.9-1.7,1.79-2.55,2.69-.08.08-.17.15-.28.25h0Z"/>
        <path class="cls-2" d="M29.92,7.6c-.72-.64-1.44-1.28-2.16-1.92-.09-.08-.19-.14-.28-.22-.28-.25-.31-.58-.1-.85.2-.25.54-.31.82-.1.43.32.85.64,1.23,1,.47.44.91.92,1.4,1.42.04-.19.06-.3.09-.41.08-.3.33-.5.62-.48.31.02.58.26.56.58-.04.67-.1,1.34-.2,2.01-.04.31-.34.46-.71.43-.53-.04-1.06-.09-1.58-.15-.46-.05-.69-.29-.66-.67.03-.37.3-.56.76-.53h.14s.05-.07.07-.11Z"/>
        <path class="cls-2" d="M30.88,23.6c-.31-.04-.51-.19-.59-.51-.03-.11-.13-.22-.22-.31-.24-.23-.52-.41-.72-.66-.21-.27-.12-.62.15-.81.25-.18.57-.14.8.1.04.04.07.1.11.14.2.23.45.3.73.17.25-.12.37-.33.34-.61-.04-.31-.24-.48-.53-.53-.16-.03-.33-.03-.49-.06-.72-.18-1.26-.77-1.36-1.47-.11-.79.24-1.49.92-1.88.12-.07.23-.21.28-.34.1-.3.28-.47.59-.47.29,0,.52.14.57.43.04.22.17.32.34.44.24.16.46.37.63.6.2.27.11.63-.15.81-.25.17-.58.13-.8-.11-.06-.06-.1-.13-.16-.19-.2-.19-.43-.24-.68-.11-.27.13-.37.36-.32.64.04.28.23.43.5.48.15.03.31.02.46.06.78.17,1.32.75,1.44,1.56.1.7-.28,1.42-.94,1.81-.12.07-.22.22-.27.35-.1.29-.29.44-.6.48h-.03Z"/>
        <path class="cls-2" d="M8.56,15.07c.16.14.39.25.45.43.07.18.04.48-.07.61-.61.66-1.25,1.29-1.89,1.91-.23.22-.58.18-.8-.04-.23-.23-.26-.58-.01-.83.61-.63,1.23-1.24,1.85-1.85.1-.1.27-.13.47-.23Z"/>
        <path class="cls-2" d="M5.53,15.67c-.09.2-.12.35-.2.45-.22.25-.45.49-.7.7-.25.21-.58.17-.8-.06-.22-.23-.24-.55-.02-.8.21-.24.42-.49.68-.66.16-.11.44-.14.62-.08.17.07.28.3.42.46h0Z"/>
      </g>
    </g>
  </g>
</svg>