<?xml version="1.0" encoding="UTF-8"?>
<svg id="Capa_2" data-name="Capa 2" xmlns="http://www.w3.org/2000/svg" viewBox="0 0 76.76 74.37">
  <defs>
    <style>
      .cls-1 {
        fill: #004d67;
        stroke-width: 0px;
      }
    </style>
  </defs>
  <g id="Capa_1-2" data-name="Capa 1">
    <g>
      <path class="cls-1" d="M0,52.32c.57-.85,1.47-.77,2.4-.76v-.94c0-14.31,0-28.63,0-42.94,0-2.64,1.44-4.08,4.06-4.08,8.32,0,16.64,0,24.96,0h.96c0-.75,0-1.45,0-2.14.02-1.02.45-1.45,1.48-1.46,3.02,0,6.05,0,9.07,0,.98,0,1.42.45,1.44,1.42.01.69,0,1.39,0,2.18h.92c8.34,0,16.69,0,25.03,0,2.58,0,4.03,1.46,4.03,4.05,0,14.31,0,28.63,0,42.94v.98c.34,0,.63,0,.92,0,1.03.02,1.47.44,1.48,1.46.01,1,0,2,0,3,0,1.11-.43,1.54-1.55,1.54-3.6,0-7.19,0-10.79,0-3.4,0-6.79,0-10.19,0h-.9c.08.3.14.53.22.76,1.7,4.74,3.39,9.48,5.09,14.23.38,1.06-.12,1.8-1.24,1.8-1.9,0-3.8,0-5.7,0-.7,0-1.11-.32-1.33-.97-.52-1.51-1.08-3-1.59-4.51-.14-.4-.32-.53-.75-.53-6.42.01-12.84.01-19.26,0-.44,0-.66.12-.8.56-.5,1.49-1.06,2.96-1.57,4.44-.23.68-.64,1.02-1.37,1.01-1.85-.02-3.7,0-5.55,0-1.28,0-1.75-.71-1.33-1.9,1.72-4.79,3.43-9.58,5.14-14.37.05-.14.07-.28.14-.52h-.93c-6.89,0-13.79,0-20.68.01-.74,0-1.37-.13-1.82-.76v-4.5ZM71.96,51.56v-.72c0-14.39,0-28.78,0-43.17,0-1.29-.39-1.66-1.73-1.66-21.24,0-42.47,0-63.71,0-1.36,0-1.73.37-1.73,1.74,0,14.34,0,28.68,0,43.02v.8h67.16ZM2.43,55.12h71.89v-1.11H2.43v1.11ZM46.42,62.33c-.55-1.53-1.06-3.01-1.62-4.47-.05-.14-.34-.28-.51-.28-3.95-.02-7.89-.02-11.84,0-.18,0-.46.13-.51.27-.55,1.46-1.07,2.94-1.62,4.48h16.1ZM29.44,57.57c-.87,0-1.67.05-2.46-.01-.7-.05-1.03.17-1.27.86-1.48,4.26-3.02,8.49-4.53,12.74-.09.24-.15.49-.24.8,1.01,0,1.91-.03,2.8.01.5.03.68-.19.83-.62,1.54-4.37,3.11-8.72,4.66-13.09.07-.2.12-.42.21-.7ZM47.3,57.57c.19.55.35,1.02.51,1.48,1.45,4.08,2.91,8.16,4.37,12.24.09.25.3.63.48.64,1.03.06,2.06.03,3.06.03.04-.13.05-.15.05-.17-1.64-4.62-3.28-9.24-4.94-13.86-.05-.15-.26-.33-.39-.34-1.01-.03-2.03-.02-3.14-.02ZM47.64,65.93c-.07-.92-.46-1.2-1.34-1.19-5.3.05-10.59.02-15.89.02q-1.07,0-1.28,1.17h18.51ZM41.95,2.4h-7.13v1.2h7.13v-1.2Z"/>
      <path class="cls-1" d="M58.87,19.19c1.19.58,2.21,1.29,2.86,2.46,1.34,2.44.43,5.38-2.07,6.64-2.39,1.21-5.36.12-6.48-2.38-1.08-2.43.08-5.34,2.59-6.33.5-.2.61-.43.61-.91-.03-1.75-.01-3.5,0-5.25,0-.99.42-1.41,1.4-1.42,2.27,0,4.55,0,6.82,0,1.18,0,1.79.94,1.13,1.92-.78,1.16-.77,2.16-.02,3.32.67,1.04.09,1.95-1.15,1.95-1.89,0-3.79,0-5.68,0ZM56.37,21.96c-1.09.79-1.43,1.81-1.05,2.85.37,1.02,1.4,1.67,2.47,1.57,1.04-.1,1.91-.89,2.13-1.92.2-.97-.24-1.93-1.15-2.4,0,.63.02,1.22,0,1.8-.03.81-.54,1.34-1.23,1.32-.67-.02-1.13-.53-1.16-1.32-.02-.59,0-1.18,0-1.9ZM58.8,16.75h4.02c-.56-.8-.49-1.55-.02-2.31h-4v2.31Z"/>
      <path class="cls-1" d="M46.25,22.87c-.8-1.06-.85-1.67-.24-2.18.61-.51,1.19-.36,2.06.5.62.62,1.25,1.22,1.86,1.85.62.63.62,1.27,0,1.9-.63.64-1.28,1.27-1.92,1.9-.81.8-1.34.94-1.95.49-.58-.43-.61-.94-.05-2.08-1.71.25-3.33.42-4.93.75-7.02,1.43-13.26,4.43-18.47,9.43-.67.65-1.32.71-1.85.21-.55-.53-.52-1.23.16-1.91,2.8-2.8,6.03-4.99,9.57-6.72,4.86-2.37,10-3.68,15.38-4.09.09,0,.19-.03.36-.05Z"/>
      <path class="cls-1" d="M15.62,35.99c2.63.02,4.81,2.24,4.76,4.86-.05,2.61-2.23,4.75-4.82,4.73-2.63-.02-4.81-2.24-4.76-4.86.05-2.61,2.23-4.75,4.82-4.73ZM15.57,43.17c1.3,0,2.39-1.06,2.41-2.36.02-1.3-1.04-2.4-2.34-2.43-1.33-.03-2.45,1.06-2.45,2.4,0,1.3,1.08,2.38,2.38,2.39Z"/>
      <path class="cls-1" d="M33.55,14.76c-.54.6-.95,1.11-1.41,1.55-.61.59-1.29.61-1.79.11-.5-.5-.49-1.18.1-1.79.45-.46.95-.87,1.56-1.43-.56-.52-1.03-.92-1.47-1.35-.68-.68-.73-1.38-.19-1.9.54-.53,1.21-.45,1.9.23.42.42.81.87,1.31,1.4.53-.56.95-1.04,1.42-1.48.65-.62,1.34-.65,1.85-.11.49.52.45,1.17-.15,1.8-.44.46-.93.89-1.46,1.39.53.52.99.94,1.42,1.39.64.66.69,1.32.19,1.85-.52.55-1.22.49-1.9-.18-.43-.42-.82-.87-1.37-1.47Z"/>
      <path class="cls-1" d="M15.58,23.17c-.55.59-.96,1.09-1.43,1.54-.62.59-1.29.61-1.79.12-.5-.5-.47-1.17.1-1.8.22-.24.45-.47.69-.69.24-.21.51-.4.92-.72-.61-.56-1.11-.97-1.56-1.42-.63-.64-.67-1.34-.14-1.85.52-.51,1.2-.46,1.85.18.44.43.85.9,1.37,1.45.52-.55.95-1.03,1.41-1.48.65-.62,1.34-.65,1.85-.11.49.52.45,1.17-.15,1.8-.44.46-.93.89-1.48,1.41.56.53,1.04.96,1.48,1.42.59.62.63,1.28.14,1.8-.51.53-1.2.5-1.85-.13-.45-.43-.85-.91-1.41-1.51Z"/>
      <path class="cls-1" d="M55.57,38.39c.6.56,1.1.98,1.54,1.45.58.61.58,1.3.06,1.79-.5.47-1.15.46-1.74-.1-.48-.46-.92-.97-1.45-1.54-.54.57-.97,1.05-1.44,1.49-.62.59-1.28.63-1.8.14-.53-.51-.5-1.2.12-1.85.43-.45.91-.85,1.6-1.5-.62-.51-1.2-.9-1.68-1.39-.71-.74-.47-1.83.45-2,.39-.07.93.13,1.26.39.5.39.89.93,1.46,1.56.53-.59.93-1.09,1.39-1.53.64-.63,1.34-.67,1.85-.14.51.52.46,1.2-.18,1.85-.43.44-.9.85-1.46,1.38Z"/>
      <path class="cls-1" d="M35.83,46.13c-.42.45-.84.95-1.31,1.39-.61.58-1.3.59-1.79.07-.47-.5-.45-1.14.09-1.74.23-.26.48-.51.74-.74.25-.21.53-.37.89-.63-.66-.63-1.14-1.05-1.58-1.52-.6-.62-.63-1.28-.15-1.8.51-.53,1.2-.5,1.85.12.45.43.86.91,1.34,1.43.56-.55,1.03-1.05,1.54-1.5.74-.66,1.77-.5,1.98.38.1.4-.1.98-.36,1.33-.37.51-.93.89-1.58,1.49.59.52,1.1.91,1.55,1.36.64.64.67,1.33.15,1.85-.52.51-1.19.46-1.85-.17-.43-.41-.86-.83-1.29-1.25-.02-.01-.05-.01-.24-.07Z"/>
      <path class="cls-1" d="M16.8,40.75c.02.66-.5,1.2-1.15,1.22-.62.02-1.2-.54-1.22-1.16-.02-.62.54-1.2,1.17-1.22.65-.02,1.19.51,1.21,1.16Z"/>
    </g>
  </g>
</svg>