<?xml version="1.0" encoding="UTF-8"?>
<svg id="Capa_2" data-name="Capa 2" xmlns="http://www.w3.org/2000/svg" viewBox="0 0 30.96 26.64">
  <defs>
    <style>
      .cls-1 {
        fill: #fff;
        stroke-width: 0px;
      }
    </style>
  </defs>
  <g id="Capa_1-2" data-name="Capa 1">
    <g>
      <path class="cls-1" d="M29.07,23.09c.58-.15.94-.55.98-1.08.02-.2.02-.41.02-.61,0-5.98,0-11.95,0-17.93,0-.13,0-.27.01-.4.04-.25.2-.43.44-.36.16.04.29.22.4.37.05.07.02.21.02.32,0,6.07,0,12.15,0,18.22,0,2.8-2.01,4.88-4.8,5.01-.11,0-.22,0-.32,0-7.36,0-14.72,0-22.08,0-1.53,0-2.72-.6-3.39-2-.23-.49-.34-1.09-.35-1.64C0,15.55,0,8.09,0,.64,0,.11.12,0,.68,0,9.35,0,18.02,0,26.69,0c.55,0,.67.12.67.69,0,6.99,0,13.97,0,20.96,0,.54.13,1,.6,1.31.04.03.08.05.13.06.02,0,.04,0,.11,0v-.46c0-6.72,0-13.44,0-20.17,0-.14-.04-.32.03-.42.1-.14.29-.31.44-.32.13,0,.3.2.38.34.07.12.03.31.03.46,0,6.72,0,13.44,0,20.17v.46ZM29.4,23.99c-.27.02-.44.04-.6.04-1.1.03-2-.63-2.24-1.66-.06-.27-.06-.55-.06-.82,0-6.72,0-13.44,0-20.17v-.46H.88c0,.13,0,.22,0,.32,0,7.25,0,14.5,0,21.75,0,1.69,1.09,2.76,2.78,2.76,7.42,0,14.84,0,22.26,0,.35,0,.7-.02,1.04-.1,1-.22,1.79-.76,2.44-1.66Z"/>
      <path class="cls-1" d="M13.71,3.82c3.03,0,6.06,0,9.09,0,.65,0,.75.1.75.76,0,1.71,0,3.42,0,5.12,0,.59-.12.71-.69.71-6.1,0-12.19,0-18.29,0-.55,0-.67-.12-.67-.65,0-1.77,0-3.54,0-5.3,0-.51.12-.64.64-.64,3.05,0,6.11,0,9.16,0ZM22.65,9.5v-4.79H4.8v4.79h17.85Z"/>
      <path class="cls-1" d="M8.79,22.56c-1.43,0-2.86,0-4.29,0-.47,0-.6-.12-.6-.6,0-2.73,0-5.46,0-8.18,0-.5.12-.61.62-.61,2.86,0,5.72,0,8.58,0,.47,0,.6.13.6.6,0,2.73,0,5.46,0,8.18,0,.49-.12.61-.63.61-1.43,0-2.86,0-4.29,0ZM4.8,21.67h8.01v-7.61H4.8v7.61Z"/>
      <path class="cls-1" d="M19.71,13.17c1.08,0,2.16,0,3.24,0,.4,0,.61.16.6.45-.01.28-.2.42-.6.42-2.18,0-4.35,0-6.53,0-.44,0-.71-.32-.5-.62.09-.14.33-.24.5-.24,1.09-.02,2.19-.01,3.28-.01Z"/>
      <path class="cls-1" d="M19.7,15.84c1.11,0,2.21,0,3.32,0,.29,0,.5.1.54.41.03.27-.18.46-.51.46-.89,0-1.78,0-2.67,0-1.32,0-2.64,0-3.97,0-.29,0-.5-.1-.54-.41-.04-.27.19-.46.55-.47,1.09,0,2.19,0,3.28,0Z"/>
      <path class="cls-1" d="M19.68,19.4c-1.09,0-2.19,0-3.28,0-.38,0-.6-.21-.53-.51.07-.3.3-.37.58-.36,1.56,0,3.12,0,4.69,0,.59,0,1.18,0,1.77,0,.43,0,.65.15.65.45,0,.28-.21.42-.63.43-1.08,0-2.16,0-3.24,0Z"/>
      <path class="cls-1" d="M19.7,22.08c-1.08,0-2.16,0-3.24,0-.15,0-.34-.02-.43-.11-.1-.1-.2-.35-.14-.42.11-.15.31-.32.49-.33.83-.03,1.66-.02,2.49-.02,1.31,0,2.62,0,3.93,0,.11,0,.22,0,.32,0,.26.03.44.18.43.44,0,.26-.18.42-.45.42-.36,0-.72,0-1.08,0-.77,0-1.54,0-2.31,0Z"/>
    </g>
  </g>
</svg>