<?xml version="1.0" encoding="UTF-8"?>
<svg id="Capa_2" data-name="Capa 2" xmlns="http://www.w3.org/2000/svg" viewBox="0 0 95.14 62.14">
  <defs>
    <style>
      .cls-1 {
        fill: #004d67;
        stroke-width: 0px;
      }
    </style>
  </defs>
  <g id="Capa_1-2" data-name="Capa 1">
    <path class="cls-1" d="M95.14,55.98c-.49,1.12-.82,2.35-1.51,3.33-1.38,1.95-3.43,2.78-5.79,2.79-4.86.02-9.73.04-14.59,0-4.24-.04-7.25-3.05-7.28-7.29-.01-1.76-.09-3.57.25-5.27.67-3.32,3.56-5.39,7.15-5.43,1.89-.02,3.77,0,5.72,0v-9.84h-30.07v9.84c1.83,0,3.62,0,5.41,0,1.78,0,3.44.35,4.88,1.46,1.84,1.41,2.77,3.3,2.82,5.6.03,1.42,0,2.85-.04,4.27-.12,3.53-3.03,6.62-7.1,6.68-1.92.03-3.84.02-5.76,0-1.07,0-1.71-.57-1.68-1.44.03-.83.63-1.33,1.67-1.34,1.83-.01,3.66,0,5.48,0,2.79-.02,4.54-1.68,4.64-4.46.05-1.3.05-2.61-.04-3.9-.18-2.35-1.82-4.01-4.17-4.04-5.05-.07-10.1-.07-15.15,0-2.39.03-4.06,1.71-4.2,4.1-.09,1.42-.08,2.85.01,4.27.15,2.32,1.86,3.93,4.19,4.02,1.02.04,2.04,0,3.07.02,1.02.02,1.65.55,1.66,1.37,0,.82-.63,1.42-1.63,1.4-1.58-.03-3.19.06-4.71-.25-3.06-.63-5.12-3.17-5.34-6.33-.1-1.51-.06-3.03-.04-4.55.06-3.66,3.05-6.89,7.41-6.86,1.88.01,3.76,0,5.68,0v-9.86h-30.08v9.86c1.85,0,3.7-.08,5.54.03,1.18.07,2.43.24,3.5.71,2.42,1.06,3.8,3.06,4.02,5.69.14,1.69.16,3.41,0,5.1-.33,3.74-3.2,6.39-7.03,6.44-4.99.08-9.97.07-14.96,0-3.86-.06-6.69-2.74-7.08-6.52-.11-1.08.33-1.77,1.2-1.86.89-.09,1.43.44,1.56,1.54.3,2.49,1.97,4.05,4.48,4.06,4.89.02,9.79.03,14.68,0,2.63-.02,4.4-1.84,4.43-4.48.02-1.18.02-2.35,0-3.53-.05-2.49-1.75-4.35-4.24-4.38-5.05-.07-10.1-.05-15.15,0-1.79.02-3.11.93-3.86,2.59-.06.14-.12.29-.19.42-.41.79-1.11,1.1-1.83.81-.7-.28-1.03-1.05-.71-1.88.96-2.55,2.76-4.19,5.47-4.59,1.46-.22,2.96-.13,4.45-.16.92-.02,1.84,0,2.86,0,0-.42,0-.75,0-1.08,0-3,0-6.01,0-9.01,0-2.42.18-2.61,2.56-2.61,9.73,0,19.45,0,29.18,0q1.24,0,1.24-1.26c0-3.62,0-7.25,0-10.87v-1.22c-1.9,0-3.72.09-5.53-.03-1.24-.09-2.56-.26-3.67-.77-2.61-1.22-3.89-3.44-3.97-6.31-.04-1.42-.05-2.85.06-4.27.32-4.17,3.91-7.08,8.08-6.61.86.1,1.43.69,1.39,1.45-.04.74-.59,1.26-1.42,1.32-.68.05-1.37.02-2.03.16-1.82.4-3.12,1.85-3.24,3.71-.09,1.48-.11,2.97-.02,4.45.14,2.35,1.78,4.04,4.13,4.08,5.08.08,10.16.07,15.24,0,2.34-.03,3.98-1.7,4.14-4.06.1-1.42.1-2.85,0-4.27-.17-2.43-1.9-4.02-4.34-4.06-2.45-.04-4.89,0-7.34,0-.25,0-.5,0-.74,0-.94-.04-1.55-.59-1.55-1.39,0-.79.61-1.38,1.55-1.39,2.01-.03,4.03-.04,6.04,0,1.3.02,2.63-.03,3.88.26,3.04.71,5.03,3.15,5.27,6.29.11,1.42.14,2.85.06,4.27-.24,4.42-3.15,7.15-7.59,7.17-1.82,0-3.64,0-5.52,0v13.35h1.13c8.36,0,16.73-.05,25.09.03,2.09.02,4.25-.55,6.29.41.88,2.05.27,4.21.38,6.31.11,1.94.02,3.89.02,5.96,1.94,0,3.82,0,5.69,0,1.58,0,3.07.34,4.39,1.25,1.38.95,2.31,2.22,2.8,3.82.25.82-.08,1.55-.81,1.82-.71.27-1.45,0-1.73-.8-.9-2.58-2.8-3.36-5.37-3.32-4.43.08-8.86.02-13.29.02-3.16,0-4.88,1.73-4.88,4.88,0,1.08-.02,2.17,0,3.25.07,2.43,1.82,4.25,4.25,4.27,5.02.05,10.04.04,15.05,0,2.31-.02,3.89-1.52,4.27-3.87.19-1.15.91-1.78,1.79-1.45.39.15.68.58,1.02.88v1.12Z"/>
  </g>
</svg>