<?xml version="1.0" encoding="UTF-8"?>
<svg id="Capa_2" data-name="Capa 2" xmlns="http://www.w3.org/2000/svg" viewBox="0 0 77.41 77.32">
  <defs>
    <style>
      .cls-1 {
        fill: #113545;
        stroke-width: 0px;
      }
    </style>
  </defs>
  <g id="Capa_1-2" data-name="Capa 1">
    <g>
      <path class="cls-1" d="M0,34.7c.16-.63.3-1.26.49-1.88.55-1.78,2.15-2.86,3.83-2.62,1.85.27,3.05,1.74,3.04,3.72,0,.07,0,.15.02.29,1.63-.71,3.18-.72,4.38.71,1.38,1.63.86,3.28-.16,4.95.24-.09.47-.18.71-.26,1.49-.51,3.09-.08,4.12,1.11,1.02,1.18,1.21,2.84.49,4.23-.79,1.51-.79,1.67-.18,3.46.16-.03.32-.06.48-.09,1.16-.21,2.2,0,3.1.81,1,.89,1.96,1.82,3.03,2.62.6.44,1.36.8,2.09.91,2.3.34,3.92,1.5,4.79,3.65.65,1.6,1.25,3.23,1.88,4.87.19-.02.33-.03.48-.05,1.24-.19,2.18.32,2.64,1.49.72,1.83,1.41,3.66,2.09,5.5.58,1.56.06,2.73-1.49,3.33-5.05,1.93-10.11,3.83-15.16,5.75-.09.03-.17.1-.25.14h-1.06c-.69-.33-1.32-.72-1.61-1.49-.74-1.95-1.49-3.9-2.21-5.86-.42-1.17.06-2.29,1.16-2.87.17-.09.34-.18.5-.27-1.19-2.93-1.48-3.37-3.65-5.53-2.39-2.38-4.77-4.78-7.17-7.15-1.91-1.89-3.19-4.12-3.83-6.73C1.71,43.99.85,40.56,0,37.12c0-.81,0-1.61,0-2.42ZM30.01,62.05c-.71-1.81-1.34-3.53-2.05-5.22-.47-1.1-1.39-1.75-2.57-1.85-1.5-.13-2.75-.71-3.84-1.73-.89-.82-1.8-1.61-2.73-2.39-.54-.46-1.2-.44-1.63,0-.44.47-.39,1.15.15,1.68.13.12.26.23.4.35,1.09.97,2.19,1.93,3.27,2.91.56.51.61,1.18.17,1.67-.44.49-1.08.49-1.68.01-.04-.03-.07-.07-.11-.1-3.48-3.06-6.96-6.11-10.44-9.17-1.05-.92-1.74-2.08-2.15-3.4-.53-1.73-1.02-3.48-1.62-5.18-.65-1.83-.95-3.62-.2-5.51.3-.76-.09-1.41-.78-1.62-.66-.2-1.37.16-1.51.97-.2,1.2-.51,2.48-.28,3.63.66,3.33,1.55,6.6,2.36,9.9.53,2.16,1.61,3.99,3.19,5.55,2.65,2.62,5.27,5.27,7.92,7.89,1.16,1.15,2.08,2.45,2.72,3.95.23.55.5,1.09.77,1.69,3.56-1.35,7.05-2.68,10.64-4.04ZM35.31,69.21c-.77-2.03-1.5-3.94-2.24-5.89-5.2,1.97-10.3,3.91-15.43,5.86.77,2.02,1.5,3.94,2.24,5.89,5.17-1.96,10.26-3.9,15.43-5.86ZM14.82,50.26c-.22-.87-.42-1.65-.62-2.42-.33-1.28-.19-2.49.51-3.62.12-.19.22-.39.29-.61.21-.65,0-1.2-.52-1.61-.55-.44-1.16-.47-1.75-.08-.54.35-.93.73-.7,1.53.39,1.35.73,2.73.89,4.12.15,1.24.84,1.98,1.89,2.69ZM10.02,46.22l.28-.1c-.29-1.32-.54-2.65-.87-3.96-.4-1.59-.33-3.08.65-4.46.37-.52.29-1.08-.23-1.47-.52-.38-1.05-.28-1.49.19-.34.37-.71.72-.98,1.14-.15.23-.23.6-.16.86.56,1.93,1.14,3.85,1.78,5.75.24.71.67,1.36,1.01,2.04Z"/>
      <path class="cls-1" d="M56.99,77.32c-1.82-.71-3.65-1.41-5.47-2.12-.23-.09-.48-.16-.7-.29-.55-.32-.77-.79-.53-1.4.23-.6.82-.86,1.49-.62,1.68.61,3.34,1.25,5.01,1.88.23.09.46.16.74.26.74-1.96,1.47-3.88,2.23-5.87-5.15-1.95-10.24-3.89-15.43-5.86-.74,1.95-1.47,3.87-2.24,5.87.59.23,1.14.46,1.69.67,1.2.46,2.4.9,3.59,1.37.78.31,1.08.87.84,1.52-.23.64-.86.88-1.64.59-1.72-.64-3.44-1.28-5.15-1.95-1.36-.53-1.91-1.75-1.4-3.13.63-1.72,1.3-3.43,1.95-5.15.68-1.78,1.32-2.17,3.28-1.94.12-.27.26-.56.37-.85.53-1.36,1.01-2.74,1.57-4.08.88-2.11,2.49-3.25,4.76-3.58.71-.1,1.45-.44,2.03-.86.94-.67,1.79-1.47,2.62-2.28,1.14-1.11,2.43-1.57,4.02-1.07.44-1.16.69-2.22-.07-3.38-.89-1.36-.67-3.08.35-4.29,1.06-1.26,2.69-1.69,4.24-1.13.21.07.41.15.77.28-.19-.37-.29-.61-.43-.83-.92-1.48-.88-3.02.13-4.2.99-1.16,2.49-1.45,4.06-.8.09.04.18.07.3.12.03-.38.04-.73.09-1.07.27-1.65,1.53-2.83,3.15-2.97,1.56-.14,3.02.82,3.57,2.37.64,1.8.79,3.65.35,5.5-.78,3.28-1.6,6.55-2.43,9.81-.62,2.42-1.88,4.49-3.65,6.25-2.41,2.4-4.82,4.8-7.22,7.2-2.18,2.17-2.46,2.6-3.65,5.53.16.09.33.18.5.27,1.08.57,1.59,1.66,1.18,2.79-.72,2.01-1.44,4.03-2.3,5.98-.26.59-1.01.96-1.53,1.44h-1.06ZM57.94,66.05c.11-.1.16-.13.18-.17.11-.23.23-.45.32-.68.79-2.06,2.04-3.78,3.63-5.31,2.5-2.41,4.93-4.9,7.39-7.35,1.48-1.47,2.55-3.18,3.07-5.2.82-3.19,1.61-6.39,2.39-9.59.36-1.5.27-3-.26-4.46-.25-.68-.89-.99-1.51-.78-.64.22-.95.79-.79,1.5.1.42.22.83.34,1.24.29.94.27,1.88-.02,2.82-.71,2.28-1.41,4.56-2.13,6.84-.41,1.3-1.11,2.42-2.14,3.32-3.46,3.04-6.92,6.09-10.39,9.12-.7.62-1.38.64-1.85.09-.45-.53-.34-1.17.33-1.77,1.14-1.02,2.3-2.03,3.45-3.06.6-.54.7-1.23.26-1.72-.43-.5-1.13-.49-1.74.03-.92.79-1.83,1.57-2.72,2.39-1.06.98-2.28,1.52-3.72,1.65-1.13.1-2.06.66-2.52,1.69-.77,1.74-1.42,3.53-2.15,5.38,3.57,1.35,7.06,2.68,10.57,4.01ZM62.56,50.35c.85-.77,1.68-1.26,1.84-2.41.21-1.49.61-2.95.92-4.42.19-.9-.31-1.65-1.23-1.82-.8-.15-1.68.43-1.74,1.27-.03.41.13.89.34,1.26.65,1.13.83,2.3.51,3.55-.2.8-.4,1.6-.65,2.57ZM67.09,46.13c.1.03.2.07.31.1.36-.76.78-1.49,1.06-2.27.51-1.44.92-2.92,1.38-4.38q.52-1.69-.66-2.99c-.54-.6-1.15-.73-1.65-.36-.51.38-.57.96-.1,1.67.75,1.14.93,2.36.64,3.68-.33,1.52-.65,3.04-.98,4.55Z"/>
      <path class="cls-1" d="M37.46,7.96c.16-.89.22-1.78.5-2.6.27-.8.7-1.56,1.15-2.27.38-.6,1.05-.68,1.58-.31.49.34.67,1.01.27,1.54-1.22,1.62-1.2,3.47-1.09,5.34,4.59.81,8.23-1.82,7.45-7.49-1,.05-2.02.08-3.04.17-.58.05-1.11.07-1.47-.49-.41-.65-.1-1.56.69-1.65,1.52-.16,3.06-.22,4.58-.17.77.03,1.4.63,1.48,1.41.27,2.53.3,5.05-1.28,7.26-1.54,2.15-3.64,3.27-6.29,3.34-.68.02-1.35,0-2.1,0v6.78c.87.15,1.76.28,2.63.47,7.87,1.78,13.31,8.92,13.09,17.16-.21,7.77-6.14,14.6-13.9,15.97-10.83,1.92-20.54-6.68-19.94-17.66.45-8.12,6.87-14.9,14.96-15.79.56-.06,1.04-.13.69-.97-.52,0-1.07,0-1.61,0-4.78-.03-8.07-3.3-8.1-8.07,0-.75-.02-1.51.05-2.26.09-.91.7-1.61,1.57-1.69,2.14-.19,4.29-.27,6.27.79.64.34,1.22.79,1.84,1.2ZM53.36,35.81c.02-8.09-6.54-14.69-14.61-14.71-8.09-.02-14.7,6.54-14.71,14.61-.02,8.1,6.54,14.7,14.61,14.71,8.1.01,14.7-6.53,14.71-14.61ZM30.06,8.22c-.72,5.33,2.57,8.16,7.4,7.4.76-4.84-2.09-8.12-7.4-7.4Z"/>
      <path class="cls-1" d="M53.5,20.06c-.01-4.82,3.89-8.74,8.72-8.76,4.8-.02,8.74,3.92,8.76,8.74.02,4.79-3.94,8.76-8.74,8.76-4.81,0-8.73-3.92-8.74-8.74ZM55.77,20c-.01,3.59,2.87,6.51,6.44,6.53,3.57.02,6.5-2.91,6.5-6.47,0-3.54-2.87-6.45-6.41-6.49-3.57-.04-6.52,2.86-6.53,6.43Z"/>
      <path class="cls-1" d="M6.41,20c.02-4.82,3.96-8.72,8.79-8.71,4.83.01,8.73,3.99,8.69,8.87-.04,4.76-3.99,8.65-8.78,8.63-4.79-.01-8.72-3.99-8.7-8.8ZM21.62,20.08c0-3.58-2.89-6.51-6.45-6.52-3.57,0-6.51,2.93-6.49,6.48.02,3.56,2.89,6.46,6.42,6.48,3.58.02,6.51-2.88,6.52-6.44Z"/>
      <path class="cls-1" d="M38.7,47.5c-4.71-.05-8.95-2.85-10.76-7.16-.39-.92-.22-1.59.45-1.86.67-.27,1.22.05,1.62.92.02.05.04.09.06.14,1.37,2.97,3.65,4.82,6.86,5.46,4.95,1,9.91-2.25,10.97-7.16,1.11-5.13-2.05-10.16-7.08-11.29-5.59-1.26-10.96,2.63-11.5,8.33,0,.1-.01.2-.03.3-.13.71-.6,1.1-1.25,1.04-.64-.06-1.05-.53-.99-1.27.36-4.26,2.39-7.52,6.17-9.5,4.37-2.29,8.73-1.94,12.62,1.08,3.96,3.06,5.38,7.26,4.16,12.1-1.2,4.75-4.4,7.61-9.2,8.62-.69.14-1.4.17-2.09.25Z"/>
    </g>
  </g>
</svg>