<?xml version="1.0" encoding="UTF-8"?>
<svg id="Capa_2" data-name="Capa 2" xmlns="http://www.w3.org/2000/svg" viewBox="0 0 62.99 78.07">
  <defs>
    <style>
      .cls-1 {
        fill: #004d67;
        stroke-width: 0px;
      }
    </style>
  </defs>
  <g id="Capa_1-2" data-name="Capa 1">
    <g>
      <path class="cls-1" d="M54.27,8.78c2.21,0,4.31,0,6.41,0,2.25,0,2.32.06,2.32,2.28,0,21.71,0,43.42,0,65.13,0,1.58-.29,1.88-1.85,1.88-16.87,0-33.74,0-50.6,0-1.51,0-1.82-.32-1.82-1.83,0-2.27,0-4.53,0-6.89-.34-.02-.63-.04-.92-.04-2.08,0-4.16,0-6.23,0-1.22,0-1.57-.35-1.57-1.55C0,49.29,0,30.83.03,12.38c0-.53.28-1.19.66-1.57C4.01,7.41,7.4,4.07,10.75.69,11.23.21,11.75,0,12.42,0c13.4.01,26.79,0,40.19,0,1.29,0,1.66.37,1.66,1.66,0,2.32,0,4.64,0,7.1ZM2.34,13.09v53.86h49.58V2.36H13.06c0,.35,0,.65,0,.95,0,2.62,0,5.25,0,7.87,0,1.64-.27,1.91-1.9,1.91-2.92,0-5.84,0-8.82,0ZM11.06,75.71h49.59V11.11h-6.38v1.11c0,18.32,0,36.64,0,54.95,0,1.96-.17,2.13-2.16,2.13-13.31,0-26.62,0-39.94,0-.37,0-.74.03-1.1.05v6.36ZM10.69,10.77v-6.33c-2.08,2.08-4.25,4.26-6.32,6.33h6.32Z"/>
      <path class="cls-1" d="M27.07,27.56c-5.52,0-11.04,0-16.57,0-.25,0-.5.02-.74-.02-.63-.09-.99-.49-1.01-1.1-.02-.62.35-1.02.96-1.15.24-.05.49-.03.74-.03,11.13,0,22.25,0,33.38,0,.27,0,.56-.02.81.06.57.16.87.56.84,1.15-.03.6-.37.96-.95,1.06-.27.05-.55.02-.82.02-5.55,0-11.1,0-16.65,0Z"/>
      <path class="cls-1" d="M27.18,50.03c5.55,0,11.1,0,16.65,0,.32,0,.74-.06.95.12.32.27.7.74.66,1.07-.05.38-.48.78-.83,1.04-.2.15-.58.06-.88.06-11.07,0-22.14,0-33.21,0-.14,0-.27,0-.41,0-.82-.03-1.33-.46-1.35-1.13-.02-.69.52-1.17,1.38-1.17,5.06,0,10.11,0,15.17,0,.63,0,1.26,0,1.89,0Z"/>
      <path class="cls-1" d="M27.1,17.03c5.55,0,11.1,0,16.65,0,.27,0,.61-.09.81.04.35.23.84.58.87.91.03.38-.3.87-.6,1.18-.18.18-.62.16-.94.16-11.18,0-22.36,0-33.54,0-.3,0-.7.03-.86-.14-.31-.31-.71-.79-.66-1.15.04-.36.55-.71.92-.97.19-.13.53-.04.8-.04,5.52,0,11.04,0,16.56,0Z"/>
      <path class="cls-1" d="M27.06,35.8c-5.52,0-11.04,0-16.56,0-.27,0-.62.09-.8-.05-.36-.26-.86-.63-.89-.99-.03-.36.37-.84.7-1.13.2-.18.62-.13.95-.13,11.12,0,22.25,0,33.37,0,.3,0,.61.01.89.1.57.18.91.65.73,1.19-.13.39-.56.71-.93.96-.19.13-.53.04-.8.04-5.55,0-11.1,0-16.65,0Z"/>
      <path class="cls-1" d="M27.07,44.08c-5.44,0-10.88,0-16.32,0-.22,0-.44,0-.66,0-.86-.04-1.39-.52-1.36-1.21.03-.66.54-1.08,1.38-1.08,4.73,0,9.46,0,14.19,0,6.48,0,12.96,0,19.43,0,.33,0,.74-.08.96.08.33.25.73.67.74,1.02,0,.36-.36.81-.69,1.05-.24.18-.68.13-1.03.13-5.55,0-11.1,0-16.65,0Z"/>
      <path class="cls-1" d="M27.18,8.78c2.65,0,5.3,0,7.95,0,.27,0,.55,0,.82.04.6.1.92.5.94,1.07.01.58-.29.99-.88,1.12-.29.06-.6.06-.9.07-5.33,0-10.65,0-15.98,0-.33,0-.75.06-.95-.11-.34-.28-.75-.73-.73-1.1.02-.36.48-.75.83-1.02.17-.14.53-.06.8-.06,2.7,0,5.41,0,8.11,0Z"/>
      <path class="cls-1" d="M18.46,60.55c-2.73,0-5.46,0-8.19,0-.96,0-1.5-.4-1.52-1.11-.02-.74.55-1.19,1.54-1.19,5.49,0,10.98,0,16.47,0,1.12,0,1.74.67,1.45,1.53-.21.61-.7.77-1.3.77-2.81,0-5.63,0-8.44,0Z"/>
    </g>
  </g>
</svg>