<?xml version="1.0" encoding="UTF-8"?>
<svg id="Capa_2" data-name="Capa 2" xmlns="http://www.w3.org/2000/svg" viewBox="0 0 90 41.46">
  <defs>
    <style>
      .cls-1 {
        fill: #004d67;
        stroke-width: 0px;
      }
    </style>
  </defs>
  <g id="Capa_1-2" data-name="Capa 1">
    <g>
      <path class="cls-1" d="M62.93,41.46c-.76-.35-1.6-.6-2.28-1.07-1.58-1.1-2.29-2.69-2.29-4.6,0-4.57-.06-9.14.02-13.71.09-5.12,2.33-9.1,6.71-11.81.53-.33.63-.61.45-1.18-.68-2.18-1.31-4.37-1.94-6.56-.43-1.49.31-2.51,1.87-2.51,5.8-.02,11.6-.02,17.4,0,1.6,0,2.33,1.02,1.88,2.57-.69,2.39-1.39,4.77-2.1,7.21.67.46,1.36.89,1.99,1.39,2.95,2.31,4.68,5.33,5.23,9.03.03.17.09.34.14.5v16.17c-.18.49-.34.99-.56,1.46-.8,1.72-2.27,2.6-4.01,3.11h-22.5ZM74.2,37.94c3.31,0,6.62,0,9.92,0,1.58,0,2.35-.74,2.36-2.29.01-4.54.03-9.08,0-13.61-.02-3.09-1.21-5.7-3.55-7.73-.96-.83-1.97-1.7-3.36-1.71-3.6-.02-7.2-.01-10.8,0-.39,0-.82.11-1.16.28-3.78,1.96-5.66,5.13-5.71,9.36-.05,4.42-.02,8.84,0,13.26,0,1.72.73,2.43,2.48,2.43,3.28,0,6.56,0,9.84,0ZM67.57,3.57c.48,1.67.96,3.25,1.39,4.85.14.52.39.68.92.68,2.52-.03,5.03-.01,7.55-.01q1.75,0,2.24-1.68c.37-1.25.73-2.5,1.12-3.83h-13.23Z"/>
      <path class="cls-1" d="M33.22,41.46c-1.78-.48-3.31-1.3-4.26-2.97-1.28-2.27-1.07-4.76.57-6.8.09-.11.17-.23.29-.39-2.24-2.8-2.3-5.62-.14-8.29-.5-1.13-1.13-2.11-1.38-3.19-.82-3.56,1.78-7.01,5.5-7.13,4.42-.14,8.84-.11,13.26,0,2.43.06,4.22,1.37,5.17,3.62.94,2.21.57,4.29-.95,6.17-.07.09-.14.19-.24.33,2.21,2.79,2.31,5.62,0,8.47.1.14.18.29.29.42,2.74,3.42,1.24,8.26-2.95,9.53-.25.08-.49.16-.74.25h-14.41ZM40.44,16.14c-2.02,0-4.04,0-6.06,0-1.62,0-2.73,1.01-2.73,2.45,0,1.44,1.11,2.46,2.72,2.47,4.04,0,8.08,0,12.11,0,1.62,0,2.73-1.01,2.73-2.45,0-1.44-1.11-2.46-2.72-2.47-2.02-.01-4.04,0-6.06,0ZM40.34,29.5c2.05,0,4.1,0,6.14,0,1.62,0,2.73-1.02,2.73-2.46,0-1.44-1.11-2.46-2.72-2.46-4.04,0-8.08,0-12.11,0-1.62,0-2.73,1.02-2.73,2.45,0,1.44,1.11,2.45,2.72,2.46,1.99.01,3.98,0,5.97,0ZM40.34,37.94c2.05,0,4.1,0,6.14,0,1.62,0,2.73-1.02,2.73-2.46,0-1.44-1.11-2.45-2.73-2.46-4.04,0-8.08,0-12.11,0-1.62,0-2.73,1.02-2.73,2.46,0,1.44,1.11,2.45,2.73,2.46,1.99.01,3.98,0,5.97,0Z"/>
      <path class="cls-1" d="M0,26.16c.51-1.91,1.4-3.59,3.3-4.39.94-.4,2.02-.65,3.04-.67,3.95-.08,7.91-.03,11.86-.03,2.64,0,4.69,1.05,5.82,3.47,1.08,2.31.7,4.5-.94,6.46-.05.06-.08.15-.11.19.43.75.95,1.44,1.24,2.22,1.22,3.31-.56,6.76-3.95,7.79-.25.08-.49.16-.74.25H5.1c-.57-.21-1.16-.37-1.7-.62C1.48,39.95.52,38.32,0,36.36,0,35.77,0,35.19,0,34.6c.5-1.13,1-2.27,1.48-3.34-.47-1.07-.97-2.21-1.48-3.34,0-.59,0-1.17,0-1.76ZM12.24,29.5c2.02,0,4.04,0,6.06,0,1.68,0,2.8-1.02,2.79-2.48-.02-1.44-1.12-2.43-2.75-2.43-4.01,0-8.02,0-12.03,0-1.68,0-2.8,1.02-2.79,2.48.02,1.44,1.12,2.43,2.75,2.43,1.99,0,3.98,0,5.97,0ZM12.29,37.94c2.02,0,4.04,0,6.06,0,1.62,0,2.73-1.01,2.74-2.45,0-1.44-1.1-2.47-2.71-2.47-4.04,0-8.08,0-12.11,0-1.62,0-2.73,1.01-2.74,2.45,0,1.44,1.1,2.46,2.71,2.47,2.02.01,4.04,0,6.06,0Z"/>
      <path class="cls-1" d="M79.46,22.17c0,1.31-.6,2.04-1.56,2.15-.88.1-1.63-.48-1.88-1.47-.35-1.37-1.06-1.88-2.29-1.63-.73.15-1.26.55-1.3,1.33-.04.8.51,1.23,1.21,1.41.53.14,1.1.13,1.65.24,3.35.66,5.15,4.14,3.64,7.03-.53,1.02-1.37,1.73-2.37,2.27-.27.15-.55.47-.63.77-.27.93-.93,1.55-1.78,1.54-.82-.02-1.45-.62-1.71-1.51-.09-.3-.34-.64-.62-.78-1.7-.91-2.78-2.22-2.91-4.19-.07-1.09.5-1.83,1.44-1.97,1.01-.16,1.72.37,2,1.5.35,1.38,1.4,2.04,2.58,1.46.44-.22.91-.83.94-1.29.02-.4-.49-.92-.89-1.23-.29-.22-.78-.2-1.18-.24-2.43-.22-4.38-1.84-4.83-4.05-.45-2.19.7-4.25,2.97-5.43.22-.12.43-.43.48-.69.2-1.08.84-1.75,1.75-1.76.91-.01,1.57.68,1.79,1.73.06.29.34.64.61.78,1.74.92,2.76,2.3,2.9,4.03Z"/>
    </g>
  </g>
</svg>