<?xml version="1.0" encoding="UTF-8"?>
<svg id="Capa_2" data-name="Capa 2" xmlns="http://www.w3.org/2000/svg" viewBox="0 0 83.99 83.99">
  <defs>
    <style>
      .cls-1 {
        fill: #004d67;
        stroke-width: 0px;
      }
    </style>
  </defs>
  <g id="Capa_1-2" data-name="Capa 1">
    <g>
      <path class="cls-1" d="M0,39.54c.22-1.62.36-3.25.66-4.85C3.22,21.4,10.46,11.47,22.3,4.95,28.98,1.27,36.23-.4,43.83.08c15.79,1.01,27.59,8.54,35.27,22.37,3.67,6.62,5.29,13.84,4.8,21.38-1.01,15.75-8.52,27.53-22.28,35.24-5.12,2.87-10.68,4.38-16.54,4.78-.21.01-.42.09-.63.13h-4.92c-.21-.05-.42-.12-.63-.13-5.86-.4-11.4-1.94-16.54-4.77C10.49,72.55,3.23,62.62.66,49.31c-.31-1.6-.45-3.23-.66-4.85,0-1.64,0-3.28,0-4.92ZM3.63,42c0,21.1,17.2,38.33,38.33,38.36,21.09.03,38.32-17.17,38.38-38.31.06-21.1-17.25-38.42-38.37-38.4C20.86,3.67,3.64,20.89,3.63,42Z"/>
      <path class="cls-1" d="M32.87,51.11h-1.1c-3.66,0-7.32,0-10.99,0-1.86,0-2.46-.6-2.46-2.44,0-4.45,0-8.91,0-13.36,0-1.8.61-2.41,2.41-2.42,3.69,0,7.38,0,11.07,0,.32,0,.64,0,1.07,0v-1.05c0-3.58,0-7.16,0-10.74,0-2.27.49-2.76,2.72-2.76,4.26,0,8.53,0,12.79,0,2.21,0,2.72.5,2.72,2.68,0,3.58,0,7.16,0,10.74v1.13c.37,0,.68,0,.99,0,3.69,0,7.38,0,11.07,0,1.8,0,2.49.68,2.49,2.47,0,4.43,0,8.85,0,13.28,0,1.9-.58,2.47-2.51,2.48-3.63,0-7.27,0-10.9,0-.33,0-.65,0-1.13,0v.99c0,3.69,0,7.38,0,11.07,0,1.9-.59,2.49-2.5,2.49-4.43,0-8.85,0-13.28,0-1.85,0-2.44-.6-2.45-2.46,0-3.66,0-7.32,0-10.99,0-.32,0-.65,0-1.1ZM47.44,61.98c0-.33,0-.62,0-.92,0-3.72,0-7.44,0-11.15,0-1.8.66-2.46,2.48-2.46,3.74,0,7.49,0,11.23,0,.31,0,.63-.03.92-.04v-10.85c-.36,0-.66,0-.96,0-3.66,0-7.33,0-10.99,0-1.96,0-2.56-.6-2.56-2.52,0-3.72,0-7.44,0-11.15,0-.29,0-.57,0-.85h-11.02c0,.33,0,.62,0,.92,0,3.72,0,7.44,0,11.15,0,1.8-.66,2.46-2.48,2.46-3.72,0-7.44,0-11.15,0-.29,0-.58,0-.9,0v10.9c.33,0,.62,0,.92,0,3.72,0,7.44,0,11.15,0,1.8,0,2.46.66,2.46,2.48,0,3.72,0,7.44,0,11.15,0,.29,0,.58,0,.9h10.9Z"/>
    </g>
  </g>
</svg>