<?xml version="1.0" encoding="UTF-8"?>
<svg id="Capa_2" data-name="Capa 2" xmlns="http://www.w3.org/2000/svg" xmlns:xlink="http://www.w3.org/1999/xlink" viewBox="0 0 35.97 35.96">
  <defs>
    <style>
      .cls-1 {
        fill: none;
      }

      .cls-1, .cls-2 {
        stroke-width: 0px;
      }

      .cls-3 {
        clip-path: url(#clippath);
      }

      .cls-2 {
        fill: #fff;
      }
    </style>
    <clipPath id="clippath">
      <rect class="cls-1" width="35.97" height="35.96"/>
    </clipPath>
  </defs>
  <g id="Capa_1-2" data-name="Capa 1">
    <g class="cls-3">
      <g>
        <path class="cls-2" d="M17.99,35.96h-2.62c-.74,0-1.02-.24-1.16-.97-.16-.83-.32-1.66-.5-2.49-.03-.13-.15-.28-.27-.33-.75-.33-1.51-.65-2.28-.94-.13-.05-.33-.02-.45.06-.72.46-1.43.95-2.14,1.43-.55.36-.93.33-1.39-.13-1.27-1.26-2.54-2.53-3.8-3.8-.46-.46-.5-.84-.13-1.39.48-.71.95-1.43,1.44-2.14.12-.17.12-.31.04-.5-.31-.73-.6-1.48-.93-2.21-.06-.13-.23-.28-.37-.31-.83-.18-1.66-.34-2.49-.5-.66-.12-.92-.42-.93-1.09v-5.37c0-.67.27-.96.92-1.09.84-.16,1.69-.32,2.52-.51.12-.03.27-.15.33-.27.33-.75.65-1.51.94-2.28.05-.13.02-.33-.06-.45-.46-.72-.95-1.43-1.43-2.14-.36-.55-.33-.93.13-1.39,1.27-1.27,2.53-2.54,3.8-3.8.46-.46.84-.5,1.39-.13.72.48,1.43.95,2.14,1.44.17.12.31.12.5.04.73-.31,1.48-.6,2.21-.93.13-.06.27-.23.31-.38.18-.81.34-1.63.5-2.45.13-.7.4-.94,1.12-.94h5.3c.72,0,.99.24,1.13.96.16.83.32,1.66.5,2.49.03.12.15.27.27.33.75.33,1.51.65,2.28.94.13.05.33.02.45-.06.73-.47,1.45-.96,2.18-1.45.51-.34.9-.31,1.33.12,1.29,1.28,2.57,2.56,3.85,3.85.43.43.46.83.13,1.34-.48.73-.96,1.45-1.46,2.17-.12.17-.13.31-.04.5.32.73.6,1.48.93,2.21.06.13.23.27.37.3.83.19,1.66.34,2.49.51.68.13.93.42.93,1.12v5.3c0,.71-.25.99-.96,1.13-.83.16-1.66.32-2.49.51-.12.03-.28.15-.33.26-.33.75-.65,1.51-.94,2.28-.05.13-.02.33.06.45.46.72.95,1.43,1.43,2.14.36.55.33.93-.13,1.39-1.26,1.27-2.53,2.54-3.8,3.8-.46.46-.85.49-1.39.13-.72-.48-1.42-.96-2.15-1.43-.12-.08-.32-.11-.45-.06-.77.3-1.53.61-2.28.94-.12.05-.24.2-.27.32-.18.83-.34,1.66-.5,2.49-.14.72-.42.96-1.16.97h-2.62ZM20.08,34.13c.17-.86.35-1.71.51-2.56.08-.42.3-.69.7-.85,1.05-.43,2.11-.84,3.14-1.31.57-.26,1.04-.22,1.55.16.63.47,1.3.88,1.9,1.28,1.01-1.01,1.99-1.98,2.99-2.97-.47-.7-.95-1.42-1.44-2.14-.22-.33-.27-.66-.12-1.03.49-1.17.97-2.34,1.46-3.52.14-.34.4-.53.76-.6.76-.14,1.52-.3,2.28-.44.26-.05.35-.15.35-.42-.02-1.17-.02-2.35,0-3.52,0-.26-.09-.36-.33-.4-.74-.13-1.47-.3-2.21-.42-.46-.08-.73-.32-.9-.74-.41-1.02-.81-2.05-1.27-3.04-.29-.62-.25-1.13.17-1.68.46-.6.85-1.25,1.24-1.84-1.01-1.01-1.98-1.99-2.97-2.99-.69.46-1.4.93-2.11,1.42-.35.24-.7.29-1.09.12-1.15-.48-2.3-.96-3.45-1.43-.37-.15-.57-.42-.64-.81-.14-.75-.3-1.49-.43-2.24-.05-.26-.15-.35-.42-.35-1.16.02-2.32.02-3.49,0-.3,0-.39.1-.44.37-.13.75-.29,1.49-.43,2.24-.07.38-.27.63-.63.78-1.17.48-2.35.97-3.52,1.46-.34.14-.66.11-.96-.1-.35-.24-.7-.47-1.05-.71-.39-.26-.78-.52-1.11-.74-1.02,1.01-2,1.98-2.99,2.97.46.68.92,1.39,1.4,2.08.26.37.3.74.12,1.16-.47,1.11-.94,2.23-1.39,3.35-.16.39-.42.63-.84.7-.74.13-1.47.29-2.21.42-.27.05-.38.13-.38.44.02,1.16.02,2.32,0,3.49,0,.3.12.39.38.43.73.13,1.45.29,2.17.42.46.08.72.33.89.75.44,1.09.88,2.17,1.35,3.25.2.46.17.85-.12,1.26-.48.68-.93,1.38-1.37,2.03,1,1.01,1.98,1.99,2.98,2.99.69-.46,1.42-.95,2.14-1.44.33-.22.66-.26,1.03-.11,1.15.48,2.3.96,3.45,1.43.38.16.59.42.67.83.16.85.34,1.7.51,2.56h4.19-.02Z"/>
        <path class="cls-2" d="M26.56,17.99c0,4.74-3.86,8.57-8.61,8.56-4.72-.01-8.55-3.86-8.54-8.59,0-4.74,3.86-8.57,8.61-8.56,4.72.01,8.55,3.86,8.54,8.59ZM24.75,17.99c0-3.73-3-6.76-6.71-6.78-3.75-.02-6.79,2.99-6.81,6.72-.01,3.74,3,6.79,6.73,6.8,3.75,0,6.78-3.01,6.79-6.74Z"/>
      </g>
    </g>
  </g>
</svg>