<?xml version="1.0" encoding="UTF-8"?>
<svg id="Capa_2" data-name="Capa 2" xmlns="http://www.w3.org/2000/svg" viewBox="0 0 65.21 65.63">
  <defs>
    <style>
      .cls-1 {
        fill: #004d67;
        stroke-width: 0px;
      }
    </style>
  </defs>
  <g id="Capa_1-2" data-name="Capa 1">
    <g>
      <path class="cls-1" d="M27.32,56.4v-4.19h-.83c-6.51,0-13.03.01-19.54,0-3.44,0-6.13-2.15-6.8-5.39-.12-.58-.13-1.19-.13-1.79C0,32.4,0,19.77,0,7.15,0,2.8,2.83,0,7.19,0,24.19,0,41.18,0,58.17,0c3.45,0,6.11,2.03,6.84,5.25.14.63.18,1.29.18,1.93.01,12.62.01,25.24,0,37.87,0,4.33-2.85,7.16-7.2,7.16-6.11,0-12.21,0-18.32,0h-.89v4.15c.25.01.47.04.7.04,1.68,0,3.37,0,5.05,0,.99,0,1.37.36,1.38,1.33,0,2.19,0,4.38,0,6.56,0,.96-.39,1.34-1.37,1.34-7.98,0-15.96,0-23.94,0-.96,0-1.36-.4-1.36-1.36,0-2.19-.01-4.38,0-6.56,0-.92.41-1.3,1.33-1.31,1.97,0,3.94,0,5.91,0,.26,0,.52,0,.82,0ZM2.21,41.57c20.31-.08,40.51-.15,60.78-.23,0-.35,0-.61,0-.87,0-11.1-.04-22.21.03-33.31.02-2.83-1.97-4.99-5-4.99-16.94.04-33.88.02-50.83.02-3.14,0-4.97,1.83-4.97,4.96,0,11.18,0,22.35,0,33.53,0,.26,0,.52,0,.88ZM2.21,43.77c0,.56,0,1.02,0,1.47.01,2.82,1.87,4.72,4.69,4.72,17.2.01,34.41.01,51.61.01,2.07,0,3.85-1.34,4.3-3.37.22-.96.16-1.98.23-3.05-20.34.07-40.54.15-60.83.22ZM21.51,63.36h22.19v-4.75h-22.19v4.75ZM29.66,52.22v4.11h6.85v-4.11h-6.85Z"/>
      <path class="cls-1" d="M59.42,23.65c0,4.13,0,8.27,0,12.4,0,1.32-.3,1.62-1.6,1.62-2.96,0-5.91,0-8.87,0-1.18,0-1.52-.33-1.52-1.48,0-8.34,0-16.68,0-25.02,0-1.82,1-2.78,2.83-2.79,2.11,0,4.23,0,6.34,0,1.83,0,2.81.96,2.82,2.8,0,4.16,0,8.32,0,12.48ZM49.71,10.65v24.79h7.46V10.65h-7.46Z"/>
      <path class="cls-1" d="M20.49,23.6c0-4.09,0-8.17,0-12.26,0-2.05.9-2.96,2.93-2.96,2.09,0,4.18,0,6.27,0,1.77,0,2.77.99,2.77,2.77,0,8.34,0,16.68,0,25.02,0,1.17-.34,1.5-1.51,1.5-3,0-6.01,0-9.01,0-1.12,0-1.46-.33-1.46-1.46,0-4.21,0-8.41,0-12.62ZM30.2,35.46V10.64h-7.45v24.82h7.45Z"/>
      <path class="cls-1" d="M45.93,27.02c0,3.08,0,6.15,0,9.23,0,1.07-.35,1.42-1.42,1.42-3.05,0-6.1,0-9.16,0-1.03,0-1.4-.37-1.4-1.38,0-6.15,0-12.31,0-18.46,0-1.57.98-2.6,2.54-2.62,2.31-.03,4.61-.03,6.92,0,1.53.02,2.5,1.05,2.51,2.57.01,3.08,0,6.15,0,9.23ZM43.71,35.46c.02-.15.04-.24.04-.33,0-5.7,0-11.39.01-17.09,0-.54-.23-.63-.7-.63-2.02.02-4.04.03-6.05,0-.66-.01-.86.17-.85.84.03,5.5.01,11.01.02,16.51,0,.23.02.46.03.7h7.5Z"/>
      <path class="cls-1" d="M18.69,29.47c0,2.26,0,4.52,0,6.78,0,1.08-.34,1.42-1.42,1.42-3.05,0-6.1,0-9.15,0-1.03,0-1.41-.37-1.41-1.38,0-4.52,0-9.04,0-13.55,0-1.63,1.03-2.65,2.66-2.66,2.23-.01,4.47-.01,6.7,0,1.61.01,2.6,1.01,2.61,2.62.01,2.26,0,4.52,0,6.78ZM16.45,35.46c.03-.12.05-.19.05-.26,0-4.11,0-8.22.01-12.33,0-.53-.26-.58-.67-.58-2.04,0-4.09.02-6.13,0-.6,0-.77.18-.77.78.02,3.92.01,7.84.01,11.76,0,.21.03.41.05.64h7.44Z"/>
    </g>
  </g>
</svg>