<?xml version="1.0" encoding="UTF-8"?>
<svg id="Capa_2" data-name="Capa 2" xmlns="http://www.w3.org/2000/svg" viewBox="0 0 34.23 64.14">
  <defs>
    <style>
      .cls-1 {
        fill: #004d67;
        stroke-width: 0px;
      }
    </style>
  </defs>
  <g id="Capa_1-2" data-name="Capa 1">
    <g>
      <path class="cls-1" d="M17.03,50.88c-.21-.33-.38-.58-.53-.84-4.71-8.13-9.44-16.25-14.1-24.41C-2.75,16.62.81,5.55,10.13,1.44,16.69-1.45,24.42.1,29.32,5.31c4.97,5.27,6.2,13.12,2.71,19.44-4.41,7.98-9.06,15.83-13.61,23.74-.45.77-.89,1.55-1.38,2.4ZM16.97,46.69c.1-.09.16-.13.19-.19,4.39-7.6,8.89-15.13,13.11-22.82,3.14-5.72,1.77-12.87-2.95-17.47C22.73,1.76,15.6.79,9.91,3.86,2.5,7.85-.08,17.04,4.17,24.53c3.98,7,8.04,13.95,12.07,20.92.24.41.48.82.72,1.24Z"/>
      <path class="cls-1" d="M4.84,35.16c.47.48.9.92,1.37,1.4-3.31,3.71-4.74,7.99-3.95,12.88.6,3.71,2.41,6.78,5.32,9.18,5.91,4.89,14.55,4.5,20.06-.88,5.37-5.25,6.43-14.2.61-20.94.46-.43.92-.86,1.38-1.29,4.85,4.47,7.1,14.83.52,22.6-6.34,7.49-17.79,8.08-24.86,1.28-7.33-7.06-6.62-18.09-.44-24.23Z"/>
      <path class="cls-1" d="M8.49,40.72c.54.35,1.03.66,1.61,1.03-1.31,2.34-1.68,4.78-.75,7.33.62,1.7,1.7,3.06,3.21,4.06,3.09,2.04,7.03,1.81,9.89-.56,3.15-2.61,3.67-6.1,1.6-11.11.49-.34.99-.69,1.48-1.04,2.37,2.62,3.1,8.77-.92,12.97-3.83,4-10.09,4.3-14.29.65-3.87-3.36-4.76-9.57-1.85-13.33Z"/>
      <path class="cls-1" d="M24.99,14.96c.02,4.44-3.54,8.02-7.97,8.03-4.43,0-8-3.56-8-8,0-4.39,3.54-7.95,7.92-7.97,4.45-.02,8.04,3.51,8.05,7.94ZM22.93,14.99c0-3.27-2.63-5.9-5.9-5.9-3.28,0-5.91,2.61-5.93,5.88-.01,3.32,2.63,5.97,5.95,5.96,3.27-.01,5.88-2.65,5.88-5.93Z"/>
    </g>
  </g>
</svg>