<?xml version="1.0" encoding="UTF-8"?>
<svg id="Capa_2" data-name="Capa 2" xmlns="http://www.w3.org/2000/svg" xmlns:xlink="http://www.w3.org/1999/xlink" viewBox="0 0 42.64 32.97">
  <defs>
    <style>
      .cls-1 {
        fill: none;
      }

      .cls-1, .cls-2 {
        stroke-width: 0px;
      }

      .cls-3 {
        clip-path: url(#clippath);
      }

      .cls-2 {
        fill: #fff;
      }
    </style>
    <clipPath id="clippath">
      <rect class="cls-1" width="42.64" height="32.97"/>
    </clipPath>
  </defs>
  <g id="Capa_1-2" data-name="Capa 1">
    <g class="cls-3">
      <g>
        <path class="cls-2" d="M31.33,10.36h-.03c-6.19,0-11.25,5.03-11.27,11.22-.03,6.22,4.99,11.33,11.18,11.39h.11c3.02,0,5.84-1.16,7.98-3.26,2.15-2.13,3.34-4.97,3.35-8,.02-6.24-5.05-11.33-11.31-11.35h0ZM41.43,21.64c0,2.7-1.05,5.25-2.96,7.16-1.91,1.91-4.45,2.96-7.16,2.96-5.55,0-10.07-4.53-10.08-10.09,0-2.69,1.04-5.22,2.95-7.13s4.43-2.97,7.11-2.97h.02c2.7,0,5.24,1.05,7.15,2.95,1.91,1.9,2.97,4.44,2.97,7.13h0Z"/>
        <path class="cls-2" d="M33.26,19.12c.03.4.28.66.62.66.16,0,.31-.07.41-.18.12-.13.18-.31.17-.52-.05-1.13-.56-1.99-1.51-2.55-.24-.14-.5-.24-.78-.34-.08-.03-.16-.06-.24-.09v-1.35c0-.43-.22-.7-.59-.7-.16.02-.31.05-.42.16-.09.08-.19.25-.19.53v1.41s-.02,0-.05.01c-1.15.29-1.94,1.02-2.26,2.13-.32,1.1-.07,2.13.72,3,.4.44.93.74,1.57.89v3.75c-.73-.23-1.27-.91-1.31-1.68-.03-.53-.33-.72-.62-.71-.17,0-.31.06-.41.17-.13.14-.19.34-.17.6.06.92.46,1.69,1.19,2.27.37.29.8.49,1.34.6v1.47c0,.35.25.6.59.6h0c.32,0,.57-.23.6-.57v-1.51c1.58-.5,2.45-1.46,2.53-2.8.04-.7-.12-1.34-.48-1.89-.47-.74-1.16-1.2-2.04-1.38v-3.72c.77.24,1.26.89,1.32,1.74ZM33.26,24.09c.02.87-.56,1.66-1.31,1.85v-3.58c.68.16,1.3.93,1.31,1.73ZM30.72,17.42v3.52c-.63-.17-1.2-.95-1.22-1.71,0-.81.55-1.62,1.22-1.81Z"/>
        <path class="cls-2" d="M19.52,9.13c.04-.12.09-.18.21-.24.95-.44,1.91-.89,2.86-1.33,1.06-.49,2.11-.99,3.17-1.48,1.61-.74,2.5-1.74,2.8-3.15v-.77l-.05-.1c-.27-1.06-.99-1.74-2.09-1.97-1.03-.21-2.07-.06-3.19.47-1.32.63-2.65,1.25-3.97,1.87-1.04.49-2.08.97-3.12,1.46-.11.05-.18.06-.29,0-1.93-.76-3.86-1.52-5.79-2.27l-.54-.21c-.7-.27-1.42-.56-2.15-.77-.66-.19-1.26-.15-1.74.11-.46.26-.8.72-.98,1.33-.18.64-.07.97.48,1.34l4.84,3.33-.31.15c-.75.36-1.5.71-2.25,1.06-.04.02-.13.02-.23,0-1.15-.29-2.31-.58-3.46-.88l-1.34-.34c-.55-.14-.81-.02-1.08.47-.37.67-.74,1.34-1.12,2.01-.12.22-.24.5-.15.77.1.27.37.42.6.51l3.16,1.31-.19.09c-.53.26-.67.63-.42,1.17.22.47.44.95.66,1.42l.28.59c.14.3.28.52.52.61.24.08.49,0,.79-.13l7.71-3.6-.49,5.11c-.07.75-.15,1.5-.21,2.24-.02.24.07.58.27.75.42.35.93.54,1.42.54.07,0,.15,0,.22,0,.51-.06.95-.33,1.28-.77.29-.38.54-.87.72-1.4.95-2.76,1.88-5.53,2.81-8.3l.34-1.01h.02ZM13.98,18.96c.18-1.94.37-3.87.55-5.81l.38-3.98v-.16c0-.47-.27-.8-.69-.82-.4-.03-.73.27-.78.71-.05.47-.09.89-.12,1.27,0,.11-.02.13-.1.16-2.07.96-4.14,1.93-6.22,2.89l-1.77.82-.48-1.02.15-.07c.3-.14.59-.28.88-.41.14-.06.57-.26.56-.76-.01-.49-.44-.66-.59-.72-1.09-.45-2.17-.9-3.26-1.35l-.72-.3.06-.1c.19-.34.37-.66.56-.98h.04c1.52.37,3.05.74,4.57,1.13.33.08.64.05.96-.1,2.65-1.24,5.3-2.48,7.95-3.72,2.65-1.24,5.3-2.48,7.95-3.72.87-.41,1.61-.52,2.33-.35.37.09.65.29.79.58.14.29.13.64-.04.99-.3.64-.83,1.13-1.6,1.5-1.34.64-2.68,1.26-4.03,1.89l-1.08.5c.04-.11.07-.22.11-.34.17-.51,0-.91-.43-1.06-.19-.07-.38-.06-.54.02-.2.1-.35.29-.44.56l-1.04,3.11c-.95,2.83-1.9,5.66-2.86,8.49-.14.4-.37.78-.59,1.16l-.03.05s-.12.09-.24.11c-.11.02-.16.01-.17.01,0-.01-.02-.06,0-.19h-.02ZM13.85,4.96c-.65.3-1.26.57-1.86.89-.34.18-.54.16-.88-.08-1.64-1.16-3.31-2.29-4.93-3.38-.04-.03-.05-.04-.06-.05,0,0,.01-.04.04-.09.09-.15.22-.27.61-.21.3.05.58.13.85.23,1.84.71,3.67,1.43,5.51,2.14l1.03.4c-.1.05-.2.09-.3.14h0Z"/>
      </g>
    </g>
  </g>
</svg>